<svg width="109" height="35" viewBox="0 0 109 35" fill="none" xmlns="http://www.w3.org/2000/svg">
<path d="M92.7339 34.0672C91.7541 33.6378 90.8678 33.0923 90.0749 32.4307C88.3329 30.9774 87.131 29.1718 86.4691 27.0137C86.1463 25.9611 85.9995 24.8425 86 23.716C86.0012 17.1146 86.0014 10.5266 86.0005 3.95188C86.0005 3.94434 86.003 3.93703 86.0076 3.93115C86.0123 3.92527 86.0187 3.92117 86.026 3.91951C89.8838 3.00689 93.5987 1.70237 97.1708 0.00597501C97.1786 0.00212208 97.1872 8.12678e-05 97.196 2.37757e-06C97.2048 -7.65127e-05 97.2134 0.00180877 97.2214 0.0055194C100.8 1.70374 104.516 3.00841 108.368 3.91951C108.374 3.92093 108.379 3.92421 108.382 3.92884C108.386 3.93346 108.388 3.93916 108.388 3.94504C108.388 10.5966 108.388 17.2334 108.388 23.8555C108.387 26.4371 107.462 28.9397 105.83 30.9186C104.586 32.4272 103.037 33.5437 101.183 34.2682C100.903 34.378 100.612 34.4757 100.312 34.5614C97.799 35.2798 95.1276 35.1161 92.7339 34.0672ZM98.8921 6.4591C99.5303 6.24241 100.188 6.13848 100.866 6.14729C101.136 6.15048 101.431 6.16963 101.707 6.21339C101.875 6.24044 102.034 6.26779 102.183 6.29544C102.247 6.30699 102.25 6.29681 102.194 6.2649C101.434 5.83244 100.632 5.55376 99.787 5.42886C99.2299 5.3462 98.6915 5.36048 98.1719 5.47171C98.1223 5.48235 98.1164 5.4708 98.1541 5.43706C98.584 5.05232 99.0745 4.81391 99.6215 4.6229C99.6622 4.60862 99.661 4.5995 99.6178 4.59555C98.9792 4.53902 98.2872 4.57549 97.6791 4.8057C97.6743 4.80753 97.6692 4.8083 97.6641 4.80797C97.659 4.80764 97.654 4.80622 97.6495 4.80379C97.645 4.80137 97.6411 4.79801 97.638 4.79393C97.6349 4.78986 97.6328 4.78516 97.6317 4.78017C97.5271 4.31368 97.4039 3.90219 97.262 3.54571C97.2468 3.50742 97.2273 3.47049 97.2036 3.43494C97.2019 3.43237 97.1997 3.43026 97.197 3.42878C97.1943 3.4273 97.1913 3.42651 97.1882 3.42646C97.1852 3.42642 97.1822 3.42713 97.1794 3.42852C97.1767 3.42992 97.1744 3.43197 97.1726 3.43448C97.1471 3.47065 97.1264 3.50939 97.1106 3.55072C96.9608 3.93942 96.8441 4.34711 96.7605 4.77379C96.7593 4.77966 96.7569 4.7852 96.7533 4.79003C96.7498 4.79486 96.7452 4.79886 96.74 4.80176C96.7347 4.80467 96.7289 4.8064 96.723 4.80684C96.717 4.80729 96.711 4.80643 96.7054 4.80433C96.095 4.57139 95.4007 4.53948 94.7497 4.59555C94.7461 4.59585 94.7437 4.59783 94.7424 4.60148C94.7409 4.60573 94.7412 4.61044 94.7434 4.61561C94.7449 4.61895 94.7475 4.62123 94.7511 4.62245C95.3141 4.79339 95.836 5.06919 96.255 5.45439C96.2787 5.47627 96.2749 5.48371 96.2436 5.47672C95.7421 5.36428 95.2229 5.34544 94.6859 5.4202C93.7839 5.54541 92.9594 5.82348 92.2124 6.25442C92.1282 6.30304 92.1336 6.31672 92.2284 6.29544C93.3072 6.05141 94.3914 6.10246 95.4809 6.44861C95.5457 6.46928 95.5452 6.48782 95.4796 6.50423C94.0049 6.87256 92.7932 7.91146 92.1618 9.28815C92.1351 9.3465 92.146 9.35471 92.1947 9.31277C93.2089 8.44071 94.3809 7.7861 95.7084 7.5764C95.7522 7.56941 95.7589 7.58203 95.7285 7.61424C95.0169 8.36686 94.685 9.42947 94.6121 10.4583C94.6069 10.5288 94.6198 10.5323 94.6508 10.4688C95.1103 9.52292 95.8187 8.59206 96.7537 8.08469C96.757 8.08287 96.7608 8.08195 96.7645 8.08201C96.7683 8.08208 96.772 8.08313 96.7753 8.08506C96.7786 8.08699 96.7813 8.08973 96.7832 8.09302C96.785 8.09632 96.786 8.10004 96.7861 8.10383C96.7929 8.70875 96.8075 9.36884 96.7997 9.99519C96.7888 10.927 96.7933 11.8843 96.7519 12.8329C96.7406 13.0867 96.733 13.3319 96.7291 13.5687C96.7245 13.8663 96.6835 14.1517 96.689 14.4517C96.6891 14.4574 96.6878 14.4631 96.6852 14.4683C96.6826 14.4734 96.6787 14.4778 96.6739 14.481C96.6692 14.4842 96.6636 14.4862 96.6579 14.4867C96.6522 14.4873 96.6464 14.4863 96.6411 14.484C96.4976 14.4223 96.3414 14.3816 96.1725 14.3618C96.1232 14.3561 96.1165 14.3704 96.1524 14.4047C96.2905 14.5351 96.4232 14.68 96.5212 14.84C96.5346 14.8619 96.5288 14.8701 96.5039 14.8647C96.1954 14.7975 95.914 14.7878 95.6596 14.8355C95.5736 14.8516 95.5713 14.8758 95.6528 14.908C96.1472 15.1034 96.6537 15.3439 97.1722 15.6296C97.1877 15.6384 97.2033 15.6384 97.2191 15.6296C97.6762 15.3776 98.1403 15.1534 98.6113 14.9567C98.6715 14.9315 98.6697 14.9124 98.6058 14.8993C98.3597 14.8476 98.1024 14.8446 97.8341 14.8902C97.8301 14.8909 97.826 14.8907 97.8222 14.8896C97.8183 14.8885 97.8147 14.8865 97.8117 14.8838C97.7993 14.8729 97.7962 14.8628 97.8026 14.8537C97.9224 14.6847 98.0538 14.5304 98.1969 14.3906C98.2191 14.3693 98.2149 14.3602 98.1842 14.3632C98.0292 14.3787 97.8807 14.4146 97.7388 14.4708C97.736 14.4719 97.733 14.4724 97.73 14.4722C97.727 14.472 97.7241 14.4712 97.7215 14.4697C97.7189 14.4682 97.7167 14.4661 97.715 14.4636C97.7134 14.4611 97.7123 14.4583 97.7119 14.4553C97.6961 14.345 97.687 14.2295 97.6845 14.1088C97.6759 13.6594 97.6408 13.2277 97.6353 12.7859C97.6253 12.0643 97.5916 11.3409 97.5879 10.6329C97.584 9.81786 97.5858 8.97467 97.5934 8.10338C97.5934 8.08089 97.6034 8.07466 97.6235 8.08469C97.7912 8.16765 97.9491 8.26551 98.0971 8.37826C98.7932 8.90979 99.3562 9.68384 99.7473 10.4852C99.7616 10.5144 99.7695 10.5129 99.771 10.4807C99.7759 10.3862 99.7715 10.2898 99.7578 10.1917C99.6238 9.2339 99.3133 8.28116 98.6605 7.61561C98.6578 7.61283 98.6559 7.60931 98.6551 7.60547C98.6543 7.60164 98.6547 7.59765 98.6561 7.59402C98.6576 7.59038 98.6601 7.58725 98.6633 7.58502C98.6665 7.58278 98.6703 7.58153 98.6742 7.58142C98.7022 7.58051 98.7295 7.58248 98.7563 7.58735C100.014 7.80889 101.222 8.44572 102.152 9.28222C102.241 9.36154 102.259 9.34772 102.208 9.24074C101.961 8.72593 101.647 8.27068 101.265 7.87499C100.595 7.17935 99.8044 6.72091 98.8939 6.49967C98.8465 6.48812 98.8459 6.4746 98.8921 6.4591ZM99.4834 18.7577C99.5321 18.6642 99.6014 18.5393 99.58 18.4345C99.5267 18.1728 99.1629 18.3821 99.0562 18.4577C99.0477 18.4638 99.0375 18.467 99.027 18.4671C99.0165 18.4672 99.0062 18.4641 98.9974 18.4582L97.9161 17.7142C97.9128 17.712 97.9101 17.7089 97.9083 17.7054C97.9064 17.7018 97.9055 17.6978 97.9055 17.6938C97.9056 17.6897 97.9066 17.6858 97.9085 17.6822C97.9104 17.6786 97.9132 17.6755 97.9166 17.6732C98.1333 17.5291 98.3513 17.3849 98.5707 17.2406C99.9255 16.3494 101.429 15.6091 103.021 15.3716C103.295 15.3305 103.569 15.3287 103.845 15.2973C103.944 15.286 103.944 15.2745 103.845 15.2626C103.691 15.2444 103.546 15.2148 103.387 15.2093C103.027 15.1959 102.736 15.1956 102.513 15.2084C100.616 15.316 98.8041 16.0718 97.2332 17.1959C97.2223 17.2036 97.2093 17.2078 97.1959 17.2078C97.1825 17.2078 97.1694 17.2036 97.1585 17.1959C95.8005 16.2231 94.2556 15.5211 92.6017 15.2813C92.0772 15.205 91.5198 15.1827 90.9296 15.2143C90.7815 15.2221 90.6365 15.2581 90.4897 15.2672C90.4606 15.269 90.4597 15.2749 90.487 15.285C90.5268 15.2998 90.5677 15.3079 90.6096 15.3091C92.7768 15.3789 94.6713 16.4492 96.4756 17.6791C96.4785 17.6811 96.4809 17.6837 96.4825 17.6868C96.4842 17.6899 96.4851 17.6933 96.4852 17.6968C96.4852 17.7002 96.4844 17.7036 96.4828 17.7067C96.4812 17.7097 96.4789 17.7123 96.4761 17.7142L95.4098 18.4486C95.3968 18.4576 95.3813 18.4624 95.3655 18.4624C95.3496 18.4624 95.3341 18.4576 95.3209 18.4486C95.2228 18.3811 95.1202 18.3354 95.0132 18.3114C94.8979 18.2859 94.7971 18.3574 94.8072 18.4823C94.8148 18.5763 94.845 18.6598 94.8979 18.7331C94.9195 18.7628 94.9151 18.7881 94.8847 18.8087L94.05 19.3767C94.0444 19.3805 94.0377 19.3823 94.031 19.3818C94.0243 19.3813 94.018 19.3785 94.0131 19.374C93.8259 19.2002 93.6203 19.1518 93.3963 19.229C93.1766 19.3052 93.0143 19.5399 93.1232 19.767C93.2377 20.0049 93.534 20.0842 93.7792 20.0505C94.3536 19.9716 94.8911 19.6471 95.3948 19.3239C95.401 19.3199 95.4084 19.3179 95.4158 19.3184C95.4232 19.3188 95.4304 19.3215 95.4363 19.3261C95.5525 19.4191 95.8397 19.6006 95.9806 19.4943C96.1205 19.3886 95.9819 19.1342 95.8985 19.0162C95.8939 19.0095 95.8952 19.0038 95.9021 18.9993L97.1849 18.1778C97.1893 18.1751 97.1943 18.1737 97.1995 18.1738C97.2047 18.1739 97.2097 18.1754 97.2141 18.1783C97.638 18.4615 98.0579 18.7309 98.4736 18.9865C98.4925 18.9981 98.4955 19.013 98.4828 19.0312C98.4317 19.1028 98.3902 19.1862 98.3629 19.2705C98.2995 19.4643 98.4344 19.581 98.6172 19.5135C98.7458 19.4661 98.8585 19.4033 98.9555 19.3252C98.9676 19.3152 98.9804 19.3144 98.9938 19.3229C99.4838 19.6366 100.522 20.3117 101.093 19.952C101.44 19.7337 101.31 19.3102 100.951 19.2158C100.735 19.1593 100.546 19.2107 100.386 19.3699C100.379 19.3758 100.372 19.3794 100.363 19.3802C100.355 19.3809 100.346 19.3787 100.339 19.374L99.4938 18.7996C99.478 18.7887 99.4745 18.7747 99.4834 18.7577ZM97.22 24.6515C97.2088 24.7101 97.1953 24.7106 97.1795 24.6528C97.139 24.507 97.0959 24.3582 97.05 24.2066C96.9296 23.8109 96.6671 23.2073 96.2491 23.0509C95.6514 22.8271 94.9088 22.9215 94.3313 23.1522C94.1541 23.223 93.9647 23.3023 93.7633 23.3901C93.3262 23.5807 92.8927 23.7116 92.4627 23.7831C92.0625 23.8496 91.6303 23.861 91.1662 23.8172C91.1613 23.8168 91.1564 23.8175 91.1518 23.8193C91.1472 23.8211 91.1431 23.824 91.1398 23.8277C91.1365 23.8315 91.1342 23.8359 91.1329 23.8407C91.1316 23.8456 91.1315 23.8506 91.1325 23.8555L92.4436 29.9349C92.4452 29.9427 92.4495 29.9497 92.4556 29.9549C92.4617 29.9601 92.4693 29.9632 92.4773 29.9636C92.5229 29.9657 92.568 29.9633 92.6127 29.9563C93.1351 29.8745 93.6763 29.7405 94.2364 29.5542C94.5829 29.4393 94.9248 29.365 95.289 29.3605C96.0509 29.3501 96.6782 29.6077 97.1708 30.1332C97.183 30.1462 97.1951 30.1464 97.2073 30.1336C97.7142 29.6066 98.3389 29.3489 99.0813 29.3605C99.3992 29.3653 99.6973 29.4128 99.9757 29.5027C100.634 29.7148 101.206 29.8622 101.693 29.9449C101.764 29.957 101.836 29.9633 101.911 29.9636C101.918 29.9636 101.924 29.9612 101.93 29.9568C101.935 29.9524 101.939 29.9463 101.94 29.9394L103.251 23.8651C103.259 23.8302 103.245 23.8145 103.209 23.8182C102.384 23.9008 101.591 23.7847 100.829 23.4699C100.572 23.3638 100.318 23.2588 100.066 23.1549C99.5709 22.9502 98.9158 22.8618 98.3683 22.9789C98.0579 23.045 97.8523 23.1909 97.6868 23.453C97.4601 23.8125 97.3045 24.212 97.22 24.6515Z" fill="white"/>
<path d="M98.892 6.45842C98.8458 6.47392 98.8464 6.48744 98.8938 6.49899C99.8043 6.72023 100.595 7.17867 101.265 7.87431C101.647 8.27 101.961 8.72525 102.208 9.24006C102.259 9.34704 102.241 9.36086 102.152 9.28155C101.222 8.44505 100.014 7.80821 98.7561 7.58667C98.7294 7.5818 98.702 7.57983 98.6741 7.58074C98.6702 7.58085 98.6664 7.5821 98.6632 7.58434C98.6599 7.58658 98.6575 7.58971 98.656 7.59334C98.6546 7.59698 98.6542 7.60096 98.655 7.60479C98.6558 7.60863 98.6576 7.61215 98.6604 7.61493C99.3132 8.28048 99.6236 9.23322 99.7577 10.191C99.7713 10.2891 99.7757 10.3855 99.7709 10.48C99.7694 10.5122 99.7615 10.5137 99.7472 10.4846C99.356 9.68316 98.7931 8.90911 98.097 8.37758C97.949 8.26483 97.7911 8.16697 97.6233 8.08401C97.6033 8.07398 97.5932 8.08021 97.5932 8.1027C97.5856 8.97399 97.5838 9.81718 97.5878 10.6323C97.5914 11.3402 97.6252 12.0636 97.6352 12.7853C97.6406 13.227 97.6757 13.6587 97.6844 14.1082C97.6868 14.2288 97.696 14.3443 97.7118 14.4546C97.7122 14.4576 97.7132 14.4604 97.7149 14.4629C97.7166 14.4654 97.7188 14.4675 97.7214 14.469C97.724 14.4705 97.7269 14.4714 97.7299 14.4716C97.7329 14.4718 97.7359 14.4713 97.7387 14.4701C97.8806 14.4139 98.029 14.378 98.184 14.3625C98.2147 14.3595 98.219 14.3686 98.1968 14.3899C98.0537 14.5297 97.9222 14.6841 97.8025 14.853C97.7961 14.8622 97.7991 14.8722 97.8116 14.8831C97.8146 14.8858 97.8182 14.8878 97.822 14.8889C97.8259 14.89 97.83 14.8902 97.8339 14.8895C98.1023 14.8439 98.3595 14.847 98.6057 14.8986C98.6695 14.9117 98.6713 14.9308 98.6112 14.9561C98.1401 15.1527 97.6761 15.377 97.219 15.6289C97.2032 15.6377 97.1875 15.6377 97.172 15.6289C96.6536 15.3432 96.1471 15.1027 95.6527 14.9073C95.5712 14.8751 95.5735 14.8509 95.6595 14.8348C95.9139 14.7871 96.1953 14.7968 96.5037 14.864C96.5287 14.8694 96.5344 14.8612 96.5211 14.8394C96.4231 14.6794 96.2904 14.5344 96.1523 14.404C96.1164 14.3697 96.1231 14.3554 96.1723 14.3612C96.3413 14.3809 96.4975 14.4216 96.641 14.4833C96.6462 14.4856 96.652 14.4866 96.6578 14.4861C96.6635 14.4855 96.669 14.4836 96.6738 14.4803C96.6786 14.4771 96.6825 14.4727 96.6851 14.4676C96.6877 14.4625 96.689 14.4567 96.6888 14.451C96.6833 14.151 96.7244 13.8657 96.7289 13.568C96.7329 13.3312 96.7405 13.086 96.7517 12.8322C96.7932 11.8836 96.7887 10.9263 96.7996 9.99451C96.8073 9.36816 96.7928 8.70808 96.7859 8.10315C96.7859 8.09936 96.7849 8.09564 96.783 8.09235C96.7811 8.08905 96.7784 8.08631 96.7752 8.08438C96.7719 8.08245 96.7682 8.0814 96.7644 8.08133C96.7606 8.08127 96.7569 8.08219 96.7536 8.08401C95.8186 8.59138 95.1102 9.52224 94.6507 10.4681C94.6197 10.5317 94.6068 10.5282 94.6119 10.4577C94.6849 9.42879 95.0167 8.36618 95.7283 7.61356C95.7587 7.58135 95.752 7.56874 95.7083 7.57573C94.3808 7.78542 93.2088 8.44003 92.1945 9.31209C92.1459 9.35403 92.135 9.34582 92.1617 9.28747C92.7931 7.91078 94.0047 6.87188 95.4794 6.50355C95.5451 6.48714 95.5455 6.4686 95.4808 6.44793C94.3913 6.10179 93.3071 6.05073 92.2283 6.29477C92.1334 6.31604 92.1281 6.30236 92.2123 6.25374C92.9593 5.8228 93.7838 5.54473 94.6858 5.41952C95.2228 5.34476 95.742 5.3636 96.2434 5.47604C96.2747 5.48303 96.2785 5.47559 96.2548 5.45371C95.8359 5.06851 95.314 4.79271 94.751 4.62177C94.7473 4.62055 94.7447 4.61827 94.7432 4.61493C94.7411 4.60976 94.7408 4.60505 94.7423 4.6008C94.7435 4.59715 94.746 4.59518 94.7496 4.59487C95.4006 4.5388 96.0948 4.57071 96.7052 4.80365C96.7108 4.80575 96.7168 4.80661 96.7228 4.80616C96.7288 4.80572 96.7346 4.80399 96.7398 4.80109C96.7451 4.79818 96.7496 4.79418 96.7532 4.78935C96.7567 4.78452 96.7592 4.77898 96.7604 4.77311C96.844 4.34643 96.9607 3.93874 97.1105 3.55005C97.1263 3.50871 97.147 3.46997 97.1725 3.4338C97.1742 3.43129 97.1766 3.42924 97.1793 3.42784C97.182 3.42645 97.185 3.42574 97.1881 3.42578C97.1912 3.42583 97.1942 3.42662 97.1969 3.4281C97.1995 3.42958 97.2018 3.43169 97.2035 3.43426C97.2272 3.46982 97.2466 3.50674 97.2618 3.54503C97.4038 3.90151 97.527 4.313 97.6315 4.77949C97.6326 4.78448 97.6348 4.78918 97.6379 4.79325C97.641 4.79733 97.6449 4.80069 97.6494 4.80311C97.6539 4.80554 97.6589 4.80696 97.664 4.80729C97.6691 4.80762 97.6742 4.80685 97.6789 4.80502C98.2871 4.57481 98.979 4.53835 99.6177 4.59487C99.6609 4.59882 99.6621 4.60794 99.6214 4.62222C99.0743 4.81323 98.5838 5.05164 98.1539 5.43639C98.1163 5.47012 98.1222 5.48167 98.1717 5.47103C98.6914 5.3598 99.2298 5.34552 99.7868 5.42818C100.631 5.55308 101.434 5.83177 102.194 6.26422C102.25 6.29613 102.246 6.30631 102.183 6.29477C102.034 6.26711 101.875 6.23976 101.706 6.21271C101.431 6.16895 101.136 6.1498 100.865 6.14661C100.188 6.1378 99.5302 6.24173 98.892 6.45842Z" fill="#0084BD"/>
<path d="M99.4935 18.7998L100.339 19.3742C100.346 19.3789 100.354 19.3811 100.363 19.3804C100.371 19.3796 100.379 19.376 100.385 19.3701C100.546 19.2108 100.734 19.1595 100.95 19.216C101.31 19.3104 101.44 19.7339 101.093 19.9522C100.521 20.3119 99.4835 19.6368 98.9934 19.3231C98.98 19.3146 98.9673 19.3154 98.9551 19.3254C98.8582 19.4035 98.7454 19.4663 98.6169 19.5137C98.4341 19.5812 98.2991 19.4645 98.3625 19.2707C98.3899 19.1864 98.4313 19.103 98.4824 19.0314C98.4952 19.0132 98.4921 18.9983 98.4733 18.9867C98.0575 18.7311 97.6377 18.4617 97.2137 18.1785C97.2094 18.1756 97.2043 18.1741 97.1991 18.174C97.194 18.1739 97.1889 18.1753 97.1846 18.178L95.9018 18.9995C95.8948 19.004 95.8936 19.0097 95.8981 19.0163C95.9816 19.1344 96.1201 19.3888 95.9802 19.4945C95.8393 19.6008 95.5521 19.4193 95.4359 19.3263C95.43 19.3217 95.4229 19.319 95.4154 19.3186C95.408 19.3181 95.4007 19.3201 95.3944 19.3241C94.8907 19.6473 94.3532 19.9718 93.7789 20.0507C93.5336 20.0844 93.2373 20.0051 93.1229 19.7671C93.0139 19.5401 93.1762 19.3054 93.3959 19.2292C93.6199 19.152 93.8255 19.2004 94.0127 19.3742C94.0176 19.3787 94.0239 19.3815 94.0306 19.382C94.0373 19.3825 94.044 19.3807 94.0496 19.3769L94.8843 18.8089C94.9147 18.7883 94.9191 18.763 94.8975 18.7333C94.8446 18.66 94.8144 18.5764 94.8068 18.4825C94.7968 18.3576 94.8975 18.2861 95.0129 18.3116C95.1198 18.3356 95.2224 18.3813 95.3206 18.4488C95.3337 18.4578 95.3492 18.4626 95.3651 18.4626C95.381 18.4626 95.3964 18.4578 95.4095 18.4488L96.4757 17.7144C96.4785 17.7125 96.4809 17.7099 96.4824 17.7069C96.484 17.7038 96.4848 17.7004 96.4848 17.6969C96.4847 17.6935 96.4839 17.6901 96.4822 17.687C96.4805 17.6839 96.4781 17.6813 96.4753 17.6793C94.671 16.4494 92.7764 15.3791 90.6093 15.3093C90.5673 15.3081 90.5265 15.3 90.4866 15.2852C90.4593 15.2751 90.4602 15.2692 90.4894 15.2674C90.6362 15.2583 90.7811 15.2222 90.9293 15.2145C91.5195 15.1829 92.0768 15.2052 92.6014 15.2815C94.2552 15.5213 95.8001 16.2233 97.1581 17.1961C97.1691 17.2038 97.1821 17.208 97.1955 17.208C97.2089 17.208 97.222 17.2038 97.2329 17.1961C98.8038 16.072 100.616 15.3162 102.513 15.2086C102.735 15.1958 103.027 15.1961 103.387 15.2095C103.545 15.215 103.691 15.2446 103.845 15.2628C103.944 15.2747 103.944 15.2862 103.844 15.2975C103.569 15.3289 103.295 15.3307 103.021 15.3718C101.429 15.6093 99.9252 16.3496 98.5704 17.2408C98.351 17.3851 98.1329 17.5293 97.9162 17.6734C97.9129 17.6757 97.9101 17.6788 97.9082 17.6824C97.9062 17.686 97.9052 17.6899 97.9052 17.694C97.9051 17.698 97.9061 17.702 97.9079 17.7056C97.9098 17.7091 97.9124 17.7122 97.9158 17.7144L98.9971 18.4584C99.0058 18.4643 99.0161 18.4674 99.0266 18.4673C99.0371 18.4672 99.0473 18.464 99.0559 18.4579C99.1625 18.3823 99.5263 18.173 99.5796 18.4347C99.6011 18.5395 99.5318 18.6644 99.483 18.7579C99.4742 18.7749 99.4777 18.7889 99.4935 18.7998Z" fill="#0084BD"/>
<path d="M97.22 24.6519C97.3045 24.2124 97.4601 23.8129 97.6868 23.4534C97.8523 23.1913 98.0579 23.0454 98.3683 22.9793C98.9158 22.8622 99.5709 22.9506 100.066 23.1553C100.318 23.2592 100.572 23.3642 100.829 23.4703C101.591 23.7851 102.384 23.9012 103.209 23.8185C103.245 23.8149 103.259 23.8306 103.251 23.8655L101.94 29.9398C101.939 29.9467 101.935 29.9528 101.93 29.9572C101.924 29.9616 101.918 29.964 101.911 29.964C101.836 29.9637 101.764 29.9574 101.693 29.9453C101.206 29.8626 100.634 29.7152 99.9757 29.5031C99.6973 29.4131 99.3992 29.3657 99.0813 29.3609C98.3389 29.3493 97.7142 29.607 97.2073 30.134C97.1951 30.1468 97.183 30.1466 97.1708 30.1335C96.6782 29.6081 96.0509 29.3505 95.289 29.3609C94.9248 29.3654 94.5829 29.4397 94.2364 29.5546C93.6764 29.7409 93.1351 29.8749 92.6127 29.9567C92.568 29.9637 92.5229 29.9661 92.4773 29.964C92.4693 29.9635 92.4617 29.9605 92.4556 29.9553C92.4495 29.9501 92.4452 29.9431 92.4436 29.9352L91.1325 23.8559C91.1315 23.851 91.1316 23.846 91.1329 23.8411C91.1342 23.8363 91.1365 23.8318 91.1398 23.8281C91.1431 23.8244 91.1472 23.8215 91.1518 23.8197C91.1564 23.8179 91.1613 23.8172 91.1662 23.8176C91.6303 23.8614 92.0625 23.85 92.4627 23.7834C92.8927 23.712 93.3263 23.581 93.7633 23.3905C93.9648 23.3027 94.1541 23.2233 94.3313 23.1525C94.9088 22.9219 95.6514 22.8275 96.2491 23.0513C96.6671 23.2077 96.9297 23.8113 97.05 24.2069C97.0959 24.3586 97.139 24.5073 97.1795 24.6532C97.1953 24.711 97.2088 24.7105 97.22 24.6519ZM96.4164 26.9781C96.3958 27.3113 96.2755 27.604 95.9067 27.6623C95.7385 27.6888 95.5548 27.6728 95.4034 27.5894C95.3399 27.5542 95.2681 27.5428 95.1878 27.5552C95.1814 27.5562 95.1755 27.5594 95.1712 27.5644C95.167 27.5693 95.1646 27.5756 95.1646 27.5821V27.9327C95.1646 27.95 95.1728 27.9615 95.1892 27.9673C95.4299 28.0494 95.677 28.075 95.9304 28.0443C96.4939 27.9755 96.8672 27.6336 96.9538 27.0643C97.0614 26.3613 96.8763 25.4911 95.986 25.4843C95.7262 25.4821 95.51 25.5491 95.3373 25.6853C95.0866 25.8828 94.99 26.1601 95.0474 26.5172C95.0793 26.7148 95.1779 26.8643 95.3433 26.9658C95.6209 27.1367 96.0704 27.1568 96.3822 26.958C96.4068 26.9422 96.4182 26.9489 96.4164 26.9781ZM94.0696 26.1202L94.0701 27.9901C94.0701 28.0129 94.0813 28.0243 94.1038 28.0243L94.5811 28.0238C94.5895 28.0238 94.5977 28.0204 94.6036 28.0144C94.6096 28.0083 94.613 28.0001 94.613 27.9915L94.6107 25.5285C94.6107 25.5252 94.61 25.5219 94.6087 25.5188C94.6075 25.5158 94.6056 25.513 94.6032 25.5107C94.6008 25.5084 94.598 25.5066 94.5949 25.5055C94.5918 25.5043 94.5885 25.5037 94.5852 25.5039C94.4607 25.508 94.2966 25.4779 94.1877 25.5431C93.9986 25.6558 93.8186 25.7623 93.6475 25.8626C93.6403 25.8668 93.6342 25.8728 93.63 25.8799C93.6258 25.8871 93.6235 25.8953 93.6233 25.9036L93.6183 26.1831C93.6181 26.1934 93.6203 26.2037 93.6247 26.213C93.6292 26.2223 93.6357 26.2305 93.6439 26.2369C93.6521 26.2432 93.6617 26.2476 93.6719 26.2497C93.682 26.2517 93.6926 26.2514 93.7026 26.2487C93.8139 26.218 93.9219 26.1676 94.0268 26.0974C94.0309 26.0945 94.0357 26.0929 94.0407 26.0926C94.0457 26.0923 94.0507 26.0934 94.0551 26.0958C94.0595 26.0981 94.0632 26.1016 94.0658 26.1059C94.0683 26.1102 94.0697 26.1152 94.0696 26.1202ZM97.6814 26.5181L97.6809 25.9524C97.6809 25.9378 97.6882 25.9307 97.7028 25.931L98.7513 25.9342C98.7615 25.9342 98.7714 25.9301 98.7787 25.9228C98.7859 25.9156 98.79 25.9057 98.79 25.8954L98.7909 25.5353C98.7909 25.5272 98.7877 25.5194 98.782 25.5137C98.7762 25.508 98.7685 25.5048 98.7604 25.5048L97.3062 25.5052C97.3 25.5052 97.2941 25.5077 97.2898 25.512C97.2854 25.5164 97.2829 25.5223 97.2829 25.5285V26.9393C97.2829 26.9597 97.2931 26.9705 97.3135 26.9717C97.4306 26.9781 97.5751 26.9941 97.6759 26.9161C97.8865 26.7524 98.2585 26.7392 98.356 27.0333C98.4727 27.3843 98.274 27.6491 97.9075 27.6623C97.7306 27.6687 97.58 27.6256 97.4557 27.5329C97.3965 27.4891 97.3217 27.4877 97.251 27.4877C97.24 27.4877 97.2294 27.4922 97.2215 27.5C97.2137 27.5079 97.2092 27.5185 97.2091 27.5297V27.8269C97.209 27.8448 97.2139 27.8623 97.2233 27.8775C97.2328 27.8927 97.2463 27.9048 97.2624 27.9126C97.5587 28.0548 97.8712 28.0925 98.1997 28.0257C98.6227 27.9395 98.9281 27.6614 98.9295 27.2092C98.9304 26.8293 98.7792 26.5839 98.4759 26.473C98.2191 26.3794 97.9631 26.3998 97.7078 26.5341C97.6902 26.5432 97.6814 26.5379 97.6814 26.5181ZM100.324 25.9757C100.001 26.5762 99.6853 27.1647 99.3753 27.7412C99.3334 27.8192 99.3297 27.9053 99.3361 27.991C99.3369 27.9999 99.3409 28.0082 99.3474 28.0143C99.3539 28.0203 99.3624 28.0237 99.3712 28.0238L99.8348 28.0243C99.8444 28.0243 99.8538 28.0214 99.8618 28.016C99.8697 28.0107 99.8759 28.0031 99.8795 27.9942C100.127 27.401 100.387 26.7879 100.661 26.1548C100.707 26.0472 100.732 25.9548 100.735 25.8777C100.738 25.7673 100.739 25.6544 100.736 25.539C100.736 25.5165 100.724 25.5052 100.702 25.5052L99.0622 25.5048C99.047 25.5048 99.0394 25.5124 99.0394 25.5276V25.9046C99.0394 25.9119 99.0423 25.919 99.0475 25.9242C99.0527 25.9294 99.0598 25.9324 99.0672 25.9324L100.297 25.931C100.302 25.931 100.307 25.9323 100.312 25.9349C100.317 25.9375 100.32 25.9412 100.323 25.9458C100.326 25.9503 100.327 25.9554 100.327 25.9607C100.327 25.9659 100.326 25.9711 100.324 25.9757Z" fill="#0084BD"/>
<path d="M96.3821 26.9582C96.0703 27.157 95.6208 27.1369 95.3432 26.966C95.1778 26.8645 95.0792 26.7149 95.0473 26.5174C94.9899 26.1603 95.0865 25.883 95.3372 25.6855C95.5099 25.5493 95.7261 25.4823 95.9859 25.4844C96.8762 25.4913 97.0613 26.3615 96.9537 27.0644C96.8671 27.6338 96.4937 27.9757 95.9303 28.0445C95.6768 28.0752 95.4298 28.0495 95.1891 27.9675C95.1727 27.9617 95.1645 27.9502 95.1645 27.9328V27.5823C95.1645 27.5758 95.1669 27.5695 95.1711 27.5645C95.1754 27.5596 95.1813 27.5564 95.1877 27.5554C95.2679 27.5429 95.3398 27.5543 95.4033 27.5896C95.5547 27.673 95.7384 27.689 95.9066 27.6625C96.2754 27.6042 96.3957 27.3115 96.4162 26.9783C96.4181 26.9491 96.4067 26.9424 96.3821 26.9582ZM96.4386 26.5447C96.4276 26.3746 96.398 26.2232 96.3497 26.0907C96.2248 25.7488 95.7065 25.7361 95.6025 26.0957C95.5556 26.258 95.5451 26.4937 95.6723 26.6263C95.8524 26.8137 96.2148 26.7285 96.4017 26.6154C96.4136 26.6081 96.4234 26.5977 96.4299 26.5853C96.4364 26.5728 96.4394 26.5588 96.4386 26.5447Z" fill="white"/>
<path d="M94.0695 26.1198C94.0695 26.1148 94.0682 26.1098 94.0656 26.1055C94.0631 26.1012 94.0594 26.0977 94.055 26.0954C94.0506 26.093 94.0456 26.0919 94.0406 26.0922C94.0356 26.0925 94.0308 26.0941 94.0266 26.097C93.9218 26.1672 93.8137 26.2176 93.7025 26.2483C93.6925 26.251 93.6819 26.2513 93.6717 26.2493C93.6615 26.2472 93.652 26.2428 93.6438 26.2365C93.6356 26.2301 93.629 26.2219 93.6246 26.2126C93.6201 26.2032 93.6179 26.193 93.6182 26.1827L93.6232 25.9032C93.6233 25.8949 93.6256 25.8867 93.6299 25.8795C93.6341 25.8723 93.6401 25.8664 93.6474 25.8622C93.8185 25.7619 93.9985 25.6554 94.1875 25.5426C94.2965 25.4775 94.4606 25.5075 94.5851 25.5034C94.5884 25.5033 94.5917 25.5039 94.5948 25.505C94.5978 25.5062 94.6007 25.508 94.6031 25.5103C94.6054 25.5126 94.6073 25.5154 94.6086 25.5184C94.6099 25.5215 94.6106 25.5247 94.6106 25.5281L94.6129 27.9911C94.6129 27.9996 94.6095 28.0079 94.6035 28.0139C94.5975 28.02 94.5894 28.0234 94.581 28.0234L94.1037 28.0239C94.0812 28.0239 94.0699 28.0125 94.0699 27.9897L94.0695 26.1198Z" fill="white"/>
<path d="M97.7077 26.5332C97.963 26.3989 98.219 26.3785 98.4758 26.4721C98.7791 26.5831 98.9303 26.8285 98.9294 27.2084C98.928 27.6606 98.6226 27.9386 98.1996 28.0248C97.871 28.0917 97.5586 28.054 97.2623 27.9117C97.2462 27.904 97.2327 27.8918 97.2232 27.8766C97.2138 27.8615 97.2089 27.8439 97.209 27.826V27.5288C97.2091 27.5177 97.2136 27.507 97.2214 27.4991C97.2293 27.4913 97.2399 27.4869 97.2509 27.4869C97.3216 27.4869 97.3963 27.4883 97.4556 27.532C97.5799 27.6247 97.7305 27.6679 97.9074 27.6615C98.2739 27.6483 98.4726 27.3834 98.3559 27.0324C98.2584 26.7384 97.8864 26.7516 97.6758 26.9152C97.575 26.9932 97.4305 26.9772 97.3134 26.9709C97.293 26.9696 97.2828 26.9589 97.2828 26.9385V25.5276C97.2828 25.5214 97.2853 25.5155 97.2896 25.5112C97.294 25.5068 97.2999 25.5044 97.3061 25.5044L98.7603 25.5039C98.7684 25.5039 98.7761 25.5071 98.7819 25.5129C98.7876 25.5186 98.7908 25.5264 98.7908 25.5345L98.7899 25.8946C98.7899 25.9049 98.7858 25.9147 98.7786 25.922C98.7713 25.9292 98.7614 25.9333 98.7512 25.9333L97.7027 25.9301C97.6881 25.9298 97.6808 25.937 97.6808 25.9516L97.6813 26.5173C97.6813 26.537 97.6901 26.5424 97.7077 26.5332Z" fill="white"/>
<path d="M100.323 25.9748C100.326 25.9702 100.327 25.965 100.327 25.9598C100.327 25.9546 100.325 25.9494 100.323 25.9449C100.32 25.9404 100.316 25.9366 100.312 25.9341C100.307 25.9315 100.302 25.9301 100.297 25.9301L99.0669 25.9315C99.0595 25.9315 99.0524 25.9286 99.0472 25.9234C99.042 25.9181 99.0391 25.9111 99.0391 25.9037V25.5267C99.0391 25.5115 99.0467 25.5039 99.0619 25.5039L100.702 25.5044C100.724 25.5044 100.735 25.5156 100.736 25.5381C100.739 25.6536 100.738 25.7665 100.734 25.8768C100.732 25.954 100.707 26.0464 100.661 26.154C100.387 26.787 100.126 27.4001 99.8792 27.9933C99.8756 28.0022 99.8694 28.0098 99.8615 28.0152C99.8535 28.0205 99.8441 28.0234 99.8345 28.0234L99.3709 28.023C99.3621 28.0229 99.3536 28.0195 99.3471 28.0134C99.3406 28.0074 99.3366 27.9991 99.3358 27.9902C99.3294 27.9045 99.3331 27.8183 99.375 27.7403C99.685 27.1638 100.001 26.5753 100.323 25.9748Z" fill="white"/>
<path d="M96.4387 26.5447C96.4396 26.5588 96.4366 26.5728 96.4301 26.5852C96.4236 26.5977 96.4138 26.6081 96.4018 26.6154C96.2149 26.7284 95.8525 26.8137 95.6724 26.6263C95.5453 26.4936 95.5557 26.258 95.6027 26.0957C95.7066 25.736 96.2249 25.7488 96.3498 26.0907C96.3982 26.2232 96.4278 26.3745 96.4387 26.5447Z" fill="#0084BD"/>
<path d="M0.4 24V23.29H4.13L3.49 23.86V21.68C3.49 21.1867 3.43333 20.7967 3.32 20.51C3.20667 20.2233 3.02 20.02 2.76 19.9C2.50667 19.7733 2.16333 19.71 1.73 19.71H0.92V19H1.73C2.26333 19 2.72 19.0833 3.1 19.25C3.48 19.4167 3.77 19.6967 3.97 20.09C4.17 20.4767 4.27 21.0067 4.27 21.68V24H0.4ZM9.53398 24V23.29H10.614V24H9.53398ZM7.16398 26.21C6.93065 26.21 6.68065 26.19 6.41398 26.15C6.15398 26.1167 5.86732 26.0667 5.55398 26L5.67398 25.37C6.02732 25.4167 6.32065 25.45 6.55398 25.47C6.79398 25.49 6.99732 25.5 7.16398 25.5C7.71732 25.5 8.12065 25.3933 8.37398 25.18C8.62732 24.9733 8.75398 24.67 8.75398 24.27V19.45L9.15398 19.71H7.46398C7.07732 19.71 6.77732 19.7567 6.56398 19.85C6.35732 19.9433 6.21398 20.12 6.13398 20.38C6.05398 20.6333 6.01398 21.0067 6.01398 21.5C6.01398 21.9933 6.05398 22.37 6.13398 22.63C6.21398 22.8833 6.35732 23.0567 6.56398 23.15C6.77732 23.2433 7.07732 23.29 7.46398 23.29H8.75398V24H7.46398C6.88398 24 6.43065 23.9133 6.10398 23.74C5.78398 23.56 5.55732 23.2867 5.42398 22.92C5.29732 22.5467 5.23398 22.0733 5.23398 21.5C5.23398 20.9267 5.29732 20.4567 5.42398 20.09C5.55732 19.7167 5.78398 19.4433 6.10398 19.27C6.43065 19.09 6.88398 19 7.46398 19H9.53398V24.26C9.53398 24.6733 9.43732 25.0267 9.24398 25.32C9.05732 25.6133 8.78732 25.8333 8.43398 25.98C8.08065 26.1333 7.65732 26.21 7.16398 26.21ZM10.614 24V23.29C10.7007 23.29 10.754 23.3233 10.774 23.39C10.8007 23.45 10.814 23.5333 10.814 23.64C10.814 23.7467 10.8007 23.8333 10.774 23.9C10.754 23.9667 10.7007 24 10.614 24ZM10.6152 24V23.29H11.9552C12.3552 23.29 12.7386 23.2267 13.1052 23.1C13.4719 22.9667 13.8086 22.7933 14.1152 22.58C14.4219 22.36 14.6886 22.12 14.9152 21.86C15.1419 21.5933 15.3186 21.3233 15.4452 21.05C15.5719 20.7767 15.6352 20.52 15.6352 20.28V19.68L16.0552 20.31C15.6686 20.11 15.2886 19.96 14.9152 19.86C14.5419 19.76 14.1786 19.71 13.8252 19.71C13.4719 19.71 13.1086 19.76 12.7352 19.86C12.3619 19.96 11.9852 20.11 11.6052 20.31L12.0252 19.68V20.28C12.0252 20.52 12.0886 20.7767 12.2152 21.05C12.3419 21.3233 12.5152 21.5933 12.7352 21.86C12.9619 22.12 13.2286 22.36 13.5352 22.58C13.8419 22.7933 14.1786 22.9667 14.5452 23.1C14.9119 23.2267 15.2952 23.29 15.6952 23.29H16.9752V24H15.6952C15.1752 24 14.6886 23.9167 14.2352 23.75C13.7819 23.5833 13.3719 23.3633 13.0052 23.09C12.6386 22.81 12.3219 22.5067 12.0552 22.18C11.7952 21.8467 11.5952 21.5167 11.4552 21.19C11.3152 20.8567 11.2452 20.5533 11.2452 20.28V19.68C11.5319 19.5267 11.8219 19.4 12.1152 19.3C12.4086 19.2 12.6986 19.1267 12.9852 19.08C13.2786 19.0267 13.5586 19 13.8252 19C14.0986 19 14.3786 19.0267 14.6652 19.08C14.9519 19.1267 15.2419 19.2 15.5352 19.3C15.8286 19.4 16.1186 19.5267 16.4052 19.68V20.28C16.4052 20.5533 16.3352 20.8567 16.1952 21.19C16.0552 21.5167 15.8519 21.8467 15.5852 22.18C15.3252 22.5067 15.0119 22.81 14.6452 23.09C14.2786 23.3633 13.8686 23.5833 13.4152 23.75C12.9619 23.9167 12.4752 24 11.9552 24H10.6152ZM10.6152 24C10.5286 24 10.4752 23.9667 10.4552 23.9C10.4286 23.8333 10.4152 23.7467 10.4152 23.64C10.4152 23.5333 10.4286 23.45 10.4552 23.39C10.4752 23.3233 10.5286 23.29 10.6152 23.29V24ZM16.9752 24V23.29C17.0619 23.29 17.1152 23.3233 17.1352 23.39C17.1619 23.45 17.1752 23.5333 17.1752 23.64C17.1752 23.7467 17.1619 23.8333 17.1352 23.9C17.1152 23.9667 17.0619 24 16.9752 24ZM22.2327 24C22.006 24 21.7827 23.9567 21.5627 23.87C21.3493 23.7833 21.1427 23.6467 20.9427 23.46L21.4527 22.93C21.606 23.0567 21.7427 23.15 21.8627 23.21C21.9827 23.2633 22.106 23.29 22.2327 23.29H24.0127L23.7127 23.61V21.22C23.7127 21.1 23.6993 20.93 23.6727 20.71C23.6527 20.49 23.6193 20.2433 23.5727 19.97C23.5327 19.69 23.4827 19.41 23.4227 19.13L24.1827 19C24.2293 19.2333 24.276 19.4933 24.3227 19.78C24.3693 20.0667 24.4093 20.34 24.4427 20.6C24.476 20.8533 24.4927 21.06 24.4927 21.22V24H22.2327ZM16.9727 24V23.29H18.4327L18.2327 23.49V20H19.0027V24H16.9727ZM19.0027 24V23.29H20.1327C20.3593 23.29 20.5293 23.2567 20.6427 23.19C20.7627 23.1233 20.846 22.99 20.8927 22.79C20.9393 22.59 20.9627 22.2967 20.9627 21.91V19.5H21.7427V21.91C21.7427 22.43 21.686 22.8433 21.5727 23.15C21.466 23.4567 21.296 23.6767 21.0627 23.81C20.8293 23.9367 20.5193 24 20.1327 24H19.0027ZM16.9727 24C16.886 24 16.8327 23.9667 16.8127 23.9C16.786 23.8333 16.7727 23.7467 16.7727 23.64C16.7727 23.5333 16.786 23.45 16.8127 23.39C16.8327 23.3233 16.886 23.29 16.9727 23.29V24ZM34.5314 24V23.29H35.6114V24H34.5314ZM30.8114 24C29.8181 24 29.0747 23.8267 28.5814 23.48C28.0881 23.1333 27.8414 22.5967 27.8414 21.87C27.8414 21.71 27.8514 21.5367 27.8714 21.35C27.8981 21.1633 27.9281 20.9833 27.9614 20.81C27.9947 20.63 28.0247 20.4767 28.0514 20.35C28.0781 20.2167 28.0947 20.1267 28.1014 20.08L28.8614 20.22C28.8414 20.3267 28.8114 20.4733 28.7714 20.66C28.7381 20.8467 28.7047 21.0467 28.6714 21.26C28.6381 21.4733 28.6214 21.6767 28.6214 21.87C28.6214 22.2033 28.6914 22.4767 28.8314 22.69C28.9714 22.8967 29.2014 23.05 29.5214 23.15C29.8414 23.2433 30.2714 23.29 30.8114 23.29H34.1114L33.7514 23.58V16.83H34.5314V24H30.8114ZM35.6114 24V23.29C35.6981 23.29 35.7514 23.3233 35.7714 23.39C35.7981 23.45 35.8114 23.5333 35.8114 23.64C35.8114 23.7467 35.7981 23.8333 35.7714 23.9C35.7514 23.9667 35.6981 24 35.6114 24ZM30.7214 20.54C30.6147 20.4067 30.5314 20.2767 30.4714 20.15C30.4181 20.0233 30.3914 19.89 30.3914 19.75C30.3914 19.5567 30.4381 19.3833 30.5314 19.23C30.6314 19.0767 30.7614 18.9567 30.9214 18.87C31.0814 18.7833 31.2547 18.74 31.4414 18.74C31.5481 18.74 31.6547 18.7567 31.7614 18.79C31.8681 18.8167 31.9614 18.8567 32.0414 18.91L31.7814 19.36C31.7281 19.3267 31.6747 19.3067 31.6214 19.3C31.5747 19.2867 31.5247 19.28 31.4714 19.28C31.3181 19.28 31.1947 19.3233 31.1014 19.41C31.0147 19.4967 30.9714 19.61 30.9714 19.75C30.9714 19.8367 30.9881 19.92 31.0214 20C31.0614 20.08 31.1181 20.1667 31.1914 20.26L30.7214 20.54ZM30.2014 20.54V20.01H32.1714V20.54H30.2014ZM37.6052 24V23.29H38.6852V24H37.6052ZM36.8252 24V16.83H37.6052V24H36.8252ZM35.6152 24V23.29H36.8252V24H35.6152ZM35.6152 24C35.5286 24 35.4752 23.9667 35.4552 23.9C35.4286 23.8333 35.4152 23.7467 35.4152 23.64C35.4152 23.5333 35.4286 23.45 35.4552 23.39C35.4752 23.3233 35.5286 23.29 35.6152 23.29V24ZM38.6852 24V23.29C38.7719 23.29 38.8252 23.3233 38.8452 23.39C38.8719 23.45 38.8852 23.5333 38.8852 23.64C38.8852 23.7467 38.8719 23.8333 38.8452 23.9C38.8252 23.9667 38.7719 24 38.6852 24ZM44.3516 24V23.29H45.4316V24H44.3516ZM38.6816 24V23.29H44.1516L43.5716 23.7V21.55C43.5716 21.0833 43.5183 20.7167 43.4116 20.45C43.305 20.1833 43.1216 19.9933 42.8616 19.88C42.6083 19.7667 42.2616 19.71 41.8216 19.71C41.5416 19.71 41.2616 19.73 40.9816 19.77C40.7083 19.81 40.495 19.8633 40.3416 19.93L40.8116 19.45C40.7716 19.61 40.7316 19.8133 40.6916 20.06C40.6516 20.3 40.6183 20.56 40.5916 20.84C40.565 21.12 40.5516 21.4 40.5516 21.68C40.5516 21.9667 40.565 22.2467 40.5916 22.52C40.6183 22.7933 40.6483 23.03 40.6816 23.23C40.715 23.43 40.7416 23.57 40.7616 23.65L40.0216 23.86C39.995 23.7733 39.9616 23.6233 39.9216 23.41C39.8883 23.1967 39.855 22.94 39.8216 22.64C39.795 22.34 39.7816 22.02 39.7816 21.68C39.7816 21.3533 39.795 21.0367 39.8216 20.73C39.855 20.4167 39.8916 20.1333 39.9316 19.88C39.9783 19.6267 40.0216 19.4233 40.0616 19.27C40.2083 19.21 40.4416 19.15 40.7616 19.09C41.0816 19.03 41.435 19 41.8216 19C42.3816 19 42.8483 19.0833 43.2216 19.25C43.6016 19.4167 43.885 19.6867 44.0716 20.06C44.2583 20.4267 44.3516 20.9233 44.3516 21.55V24H38.6816ZM38.6816 24C38.595 24 38.5416 23.9667 38.5216 23.9C38.495 23.8333 38.4816 23.7467 38.4816 23.64C38.4816 23.5333 38.495 23.45 38.5216 23.39C38.5416 23.3233 38.595 23.29 38.6816 23.29V24ZM45.4316 24V23.29C45.5183 23.29 45.5716 23.3233 45.5916 23.39C45.6183 23.45 45.6316 23.5333 45.6316 23.64C45.6316 23.7467 45.6183 23.8333 45.5916 23.9C45.5716 23.9667 45.5183 24 45.4316 24ZM46.6397 24V16.83H47.4197V24H46.6397ZM45.4297 24V23.29H46.6397V24H45.4297ZM45.4297 24C45.343 24 45.2897 23.9667 45.2697 23.9C45.243 23.8333 45.2297 23.7467 45.2297 23.64C45.2297 23.5333 45.243 23.45 45.2697 23.39C45.2897 23.3233 45.343 23.29 45.4297 23.29V24ZM49.1436 24V16.83H49.9136V24H49.1436ZM55.6964 24C55.1164 24 54.6631 23.9133 54.3364 23.74C54.0164 23.56 53.7897 23.2867 53.6564 22.92C53.5297 22.5467 53.4664 22.0733 53.4664 21.5C53.4664 20.9267 53.5297 20.4567 53.6564 20.09C53.7897 19.7167 54.0164 19.4433 54.3364 19.27C54.6631 19.09 55.1164 19 55.6964 19H57.7664V23.6H56.9864V19.37L57.3864 19.71H55.6964C55.3097 19.71 55.0097 19.7567 54.7964 19.85C54.5897 19.9433 54.4464 20.12 54.3664 20.38C54.2864 20.6333 54.2464 21.0067 54.2464 21.5C54.2464 21.9933 54.2864 22.37 54.3664 22.63C54.4464 22.8833 54.5897 23.0567 54.7964 23.15C55.0097 23.2433 55.3097 23.29 55.6964 23.29H58.8464V24H55.6964ZM58.8464 24V23.29C58.9331 23.29 58.9864 23.3233 59.0064 23.39C59.0331 23.45 59.0464 23.5333 59.0464 23.64C59.0464 23.7467 59.0331 23.8333 59.0064 23.9C58.9864 23.9667 58.9331 24 58.8464 24ZM54.7264 18.1V17.2H55.5064V18.1H54.7264ZM56.0964 18.1V17.2H56.8764V18.1H56.0964ZM58.8477 24V23.29H60.1877C60.5877 23.29 60.971 23.2267 61.3377 23.1C61.7043 22.9667 62.041 22.7933 62.3477 22.58C62.6543 22.36 62.921 22.12 63.1477 21.86C63.3743 21.5933 63.551 21.3233 63.6777 21.05C63.8043 20.7767 63.8677 20.52 63.8677 20.28V19.68L64.2877 20.31C63.901 20.11 63.521 19.96 63.1477 19.86C62.7743 19.76 62.411 19.71 62.0577 19.71C61.7043 19.71 61.341 19.76 60.9677 19.86C60.5943 19.96 60.2177 20.11 59.8377 20.31L60.2577 19.68V20.28C60.2577 20.52 60.321 20.7767 60.4477 21.05C60.5743 21.3233 60.7477 21.5933 60.9677 21.86C61.1943 22.12 61.461 22.36 61.7677 22.58C62.0743 22.7933 62.411 22.9667 62.7777 23.1C63.1443 23.2267 63.5277 23.29 63.9277 23.29H65.2077V24H63.9277C63.4077 24 62.921 23.9167 62.4677 23.75C62.0143 23.5833 61.6043 23.3633 61.2377 23.09C60.871 22.81 60.5543 22.5067 60.2877 22.18C60.0277 21.8467 59.8277 21.5167 59.6877 21.19C59.5477 20.8567 59.4777 20.5533 59.4777 20.28V19.68C59.7643 19.5267 60.0543 19.4 60.3477 19.3C60.641 19.2 60.931 19.1267 61.2177 19.08C61.511 19.0267 61.791 19 62.0577 19C62.331 19 62.611 19.0267 62.8977 19.08C63.1843 19.1267 63.4743 19.2 63.7677 19.3C64.061 19.4 64.351 19.5267 64.6377 19.68V20.28C64.6377 20.5533 64.5677 20.8567 64.4277 21.19C64.2877 21.5167 64.0843 21.8467 63.8177 22.18C63.5577 22.5067 63.2443 22.81 62.8777 23.09C62.511 23.3633 62.101 23.5833 61.6477 23.75C61.1943 23.9167 60.7077 24 60.1877 24H58.8477ZM58.8477 24C58.761 24 58.7077 23.9667 58.6877 23.9C58.661 23.8333 58.6477 23.7467 58.6477 23.64C58.6477 23.5333 58.661 23.45 58.6877 23.39C58.7077 23.3233 58.761 23.29 58.8477 23.29V24ZM65.2077 24V23.29C65.2943 23.29 65.3477 23.3233 65.3677 23.39C65.3943 23.45 65.4077 23.5333 65.4077 23.64C65.4077 23.7467 65.3943 23.8333 65.3677 23.9C65.3477 23.9667 65.2943 24 65.2077 24ZM65.2051 24V23.29H70.6751L70.0951 23.7V21.55C70.0951 21.0833 70.0417 20.7167 69.9351 20.45C69.8284 20.1833 69.6451 19.9933 69.3851 19.88C69.1317 19.7667 68.7851 19.71 68.3451 19.71C68.0651 19.71 67.7851 19.73 67.5051 19.77C67.2317 19.81 67.0184 19.8633 66.8651 19.93L67.3351 19.45C67.2951 19.61 67.2551 19.8133 67.2151 20.06C67.1751 20.3 67.1417 20.56 67.1151 20.84C67.0884 21.12 67.0751 21.4 67.0751 21.68C67.0751 21.9667 67.0884 22.2467 67.1151 22.52C67.1417 22.7933 67.1717 23.03 67.2051 23.23C67.2384 23.43 67.2651 23.57 67.2851 23.65L66.5451 23.86C66.5184 23.7733 66.4851 23.6233 66.4451 23.41C66.4117 23.1967 66.3784 22.94 66.3451 22.64C66.3184 22.34 66.3051 22.02 66.3051 21.68C66.3051 21.3533 66.3184 21.0367 66.3451 20.73C66.3784 20.4167 66.4151 20.1333 66.4551 19.88C66.5017 19.6267 66.5451 19.4233 66.5851 19.27C66.7317 19.21 66.9651 19.15 67.2851 19.09C67.6051 19.03 67.9584 19 68.3451 19C68.9051 19 69.3717 19.0833 69.7451 19.25C70.1251 19.4167 70.4084 19.6867 70.5951 20.06C70.7817 20.4267 70.8751 20.9233 70.8751 21.55V24H65.2051ZM65.2051 24C65.1184 24 65.0651 23.9667 65.0451 23.9C65.0184 23.8333 65.0051 23.7467 65.0051 23.64C65.0051 23.5333 65.0184 23.45 65.0451 23.39C65.0651 23.3233 65.1184 23.29 65.2051 23.29V24ZM73.3511 24V23.29H74.5711V24H73.3511ZM72.5811 24V16.83H73.3511V24H72.5811ZM74.5711 24V23.29C74.6578 23.29 74.7111 23.3233 74.7311 23.39C74.7578 23.45 74.7711 23.5333 74.7711 23.64C74.7711 23.7467 74.7578 23.8333 74.7311 23.9C74.7111 23.9667 74.6578 24 74.5711 24ZM74.5703 24V23.29H78.9803L78.7403 23.5V21.02C78.7403 20.5867 78.6036 20.2633 78.3303 20.05C78.0636 19.83 77.6536 19.72 77.1003 19.72C76.927 19.72 76.677 19.7367 76.3503 19.77C76.0236 19.7967 75.6803 19.8367 75.3203 19.89L75.2303 19.25C75.5036 19.1833 75.8036 19.1267 76.1303 19.08C76.457 19.0267 76.7736 19 77.0803 19C77.587 19 78.0203 19.08 78.3803 19.24C78.747 19.3933 79.027 19.62 79.2203 19.92C79.4203 20.22 79.5203 20.5867 79.5203 21.02V24H74.5703ZM74.5703 24C74.4836 24 74.4303 23.9667 74.4103 23.9C74.3836 23.8333 74.3703 23.7467 74.3703 23.64C74.3703 23.5333 74.3836 23.45 74.4103 23.39C74.4303 23.3233 74.4836 23.29 74.5703 23.29V24ZM76.6903 25.8V24.9H77.4703V25.8H76.6903Z" fill="white"/>
</svg>
