<svg width="53" height="35" viewBox="0 0 53 35" fill="none" xmlns="http://www.w3.org/2000/svg">
<g clip-path="url(#clip0_1336_85)">
<path d="M47.2666 0.836988H47.9709C47.9839 0.836988 47.9904 0.843502 47.9904 0.856529L47.9909 1.25951C47.9909 1.27832 47.9813 1.28773 47.9622 1.28773L46.7255 1.28817C46.7177 1.28817 46.7136 1.28426 46.7133 1.27644C46.6994 0.872162 46.6282 0.295487 47.0916 0.122224C47.2848 0.0501393 47.5792 0.0731542 47.8042 0.0761939C47.812 0.0761939 47.8159 0.0801021 47.8159 0.0879185L47.8163 0.465276C47.8163 0.467386 47.8159 0.469475 47.8151 0.471424C47.8143 0.473374 47.8131 0.475145 47.8116 0.476637C47.8101 0.478129 47.8083 0.479312 47.8064 0.48012C47.8044 0.480927 47.8024 0.481343 47.8002 0.481343L47.3456 0.478737C47.2674 0.478448 47.2208 0.516661 47.2058 0.593378L47.1793 0.730598C47.1651 0.801525 47.1942 0.836988 47.2666 0.836988Z" fill="white"/>
<path d="M31.2702 0.705078H30.7109C30.7045 0.705078 30.6992 0.710327 30.6992 0.716803V1.27524C30.6992 1.28171 30.7045 1.28696 30.7109 1.28696H31.2702C31.2767 1.28696 31.282 1.28171 31.282 1.27524V0.716803C31.282 0.710327 31.2767 0.705078 31.2702 0.705078Z" fill="white"/>
<path d="M32.4431 0.705078H31.8838C31.8773 0.705078 31.8721 0.710327 31.8721 0.716803V1.27611C31.8721 1.28258 31.8773 1.28783 31.8838 1.28783H32.4431C32.4496 1.28783 32.4548 1.28258 32.4548 1.27611V0.716803C32.4548 0.710327 32.4496 0.705078 32.4431 0.705078Z" fill="white"/>
<path d="M14.9381 6.10436C14.3328 5.04785 14.4214 3.6713 15.2265 2.72856C16.1727 1.61994 17.8997 1.45362 19.06 2.32819C20.6749 3.54494 20.46 6.20858 18.6592 7.13482C17.3586 7.80443 15.6733 7.38799 14.9381 6.10436ZM16.5144 2.50492C14.9672 3.13154 14.7657 5.30449 15.9464 6.35449C16.6134 6.94766 17.6548 7.04537 18.4238 6.59853C19.4812 5.98408 19.786 4.58408 19.2562 3.53017C18.746 2.51448 17.5714 2.07676 16.5144 2.50492Z" fill="white"/>
<path d="M8.5497 3.13008C8.45026 3.74062 8.92359 3.99943 9.42514 4.15055C10.2736 4.40588 11.6102 4.50576 11.8039 5.61829C11.9381 6.38951 11.4986 7.03523 10.7808 7.29751C10.4583 7.41533 10.0998 7.45934 9.70522 7.42952C8.94067 7.37162 8.27931 7.08415 7.72117 6.56711C7.71075 6.55727 7.71017 6.5467 7.71943 6.53541L8.06856 6.12375C8.07956 6.11043 8.09158 6.10957 8.1046 6.12115C8.5801 6.53976 9.08686 6.82028 9.72607 6.86935C10.3357 6.91581 11.1282 6.75471 11.1955 5.99825C11.2498 5.38641 10.7201 5.1276 10.2046 4.99515C9.70088 4.86604 9.37896 4.78281 9.23885 4.74546C8.3747 4.51488 7.7672 3.9851 7.95001 3.02108C8.09766 2.24335 8.86453 1.81693 9.61881 1.7861C10.3819 1.75483 11.0559 1.97702 11.6406 2.45266C11.6519 2.46163 11.6532 2.47191 11.6446 2.48349L11.3141 2.92034C11.3054 2.93192 11.2953 2.93337 11.2837 2.92468C10.8612 2.60378 10.4243 2.39621 9.89021 2.34801C9.3422 2.29807 8.65305 2.49565 8.5497 3.13008Z" fill="white"/>
<path d="M2.79822 6.89963C2.78375 6.7601 2.76956 6.61202 2.75567 6.4554C2.75017 6.39345 2.75929 6.33367 2.78303 6.27606C3.39126 4.81324 3.9992 3.35027 4.60685 1.88716C4.61235 1.87385 4.62234 1.86719 4.63681 1.86719H5.25387C5.27182 1.86719 5.27732 1.87544 5.27037 1.89194L2.92546 7.37252C2.92263 7.37924 2.91791 7.38496 2.91188 7.38898C2.90585 7.393 2.89879 7.39513 2.89159 7.39511H2.39047C2.37455 7.39511 2.36355 7.38787 2.35747 7.37339L0.00647554 1.87805C0.00596751 1.87684 0.00576876 1.87553 0.00589744 1.87423C0.00602612 1.87293 0.00647812 1.87169 0.00721219 1.87061C0.00794625 1.86953 0.00893901 1.86865 0.0100998 1.86805C0.0112607 1.86746 0.0125526 1.86716 0.0138577 1.86719H0.671736C0.684763 1.86719 0.693738 1.87312 0.698659 1.88499L2.77564 6.90528C2.79591 6.95449 2.80344 6.95261 2.79822 6.89963Z" fill="white"/>
<path d="M6.73207 1.86719H6.13629C6.13006 1.86719 6.125 1.87224 6.125 1.87848V7.34386C6.125 7.3501 6.13006 7.35515 6.13629 7.35515H6.73207C6.73831 7.35515 6.74336 7.3501 6.74336 7.34386V1.87848C6.74336 1.87224 6.73831 1.86719 6.73207 1.86719Z" fill="white"/>
<path d="M13.4592 1.86719H12.8651C12.8582 1.86719 12.8525 1.87283 12.8525 1.87978V7.34343C12.8525 7.35038 12.8582 7.35602 12.8651 7.35602H13.4592C13.4661 7.35602 13.4718 7.35038 13.4718 7.34343V1.87978C13.4718 1.87283 13.4661 1.86719 13.4592 1.86719Z" fill="white"/>
<path d="M21.4513 2.46992L21.7583 3.18077C21.7698 3.20771 21.7757 3.23666 21.7757 3.26588L21.7753 7.33822C21.7753 7.35067 21.769 7.35675 21.7566 7.35646L21.1851 7.35428C21.1811 7.35417 21.1772 7.35252 21.1744 7.34968C21.1715 7.34684 21.1699 7.34304 21.1699 7.33909V1.8889C21.1699 1.87442 21.1772 1.86719 21.1916 1.86719H21.7327C21.7449 1.86719 21.7547 1.87196 21.7622 1.88152L25.4416 6.55224C25.4644 6.58119 25.4694 6.57844 25.4563 6.54399C25.3751 6.32686 25.2188 6.02811 25.2188 5.79448C25.2182 4.49262 25.2181 3.19076 25.2184 1.8889C25.2184 1.87442 25.2258 1.86719 25.2405 1.86719H25.802C25.8074 1.86719 25.8126 1.86929 25.8164 1.87304C25.8203 1.87678 25.8224 1.88186 25.8224 1.88716V7.3278C25.8224 7.34661 25.813 7.35602 25.7942 7.35602H25.3486C25.3347 7.35602 25.3235 7.35052 25.3148 7.33952L21.4656 2.46123C21.4644 2.4596 21.4627 2.45849 21.4608 2.4581C21.4588 2.45772 21.4568 2.45809 21.455 2.45915C21.4533 2.46021 21.4519 2.46188 21.4513 2.46386C21.4506 2.46584 21.4506 2.46799 21.4513 2.46992Z" fill="white"/>
<path d="M32.0748 6.96976L32.0744 7.34321C32.0744 7.35797 32.0669 7.3655 32.0518 7.36579C31.6471 7.36839 31.2441 7.36854 30.8429 7.36622C29.9336 7.36101 29.1324 6.95413 28.6265 6.21027C27.5661 4.6522 28.3473 2.35419 30.2393 1.94079C30.4274 1.89968 30.7154 1.87826 31.103 1.87652C31.5477 1.87449 31.9917 1.87449 32.4352 1.87652C32.4405 1.87652 32.4456 1.87867 32.4494 1.8825C32.4531 1.88633 32.4552 1.89152 32.4552 1.89693C32.4544 3.31025 32.4549 4.72255 32.457 6.13384C32.4574 6.32882 32.5199 6.67838 32.7488 6.75351C32.7878 6.76653 32.8999 6.77507 33.0849 6.77913C33.7287 6.79418 34.1645 6.80214 34.3924 6.80301C37.2841 6.81604 40.1759 6.81647 43.0677 6.80431C43.0813 6.80431 43.0881 6.79751 43.0881 6.7839V1.89867C43.0881 1.88332 43.0958 1.87565 43.1111 1.87565H43.6513C43.6664 1.87565 43.6739 1.88332 43.6739 1.89867V7.38099C43.6739 7.3862 43.6713 7.3888 43.6661 7.3888C40.1882 7.37795 36.7086 7.40791 33.2308 7.38272C32.754 7.37925 32.384 7.39228 32.0948 6.96368C32.0815 6.94399 32.0748 6.94602 32.0748 6.96976ZM31.8842 2.59823L32.1903 2.44668C32.2187 2.43279 32.2171 2.42569 32.1856 2.4254C31.7394 2.42077 31.2936 2.42121 30.8481 2.42671C29.6014 2.4419 28.752 3.4398 28.772 4.6522C28.7889 5.69352 29.4676 6.59935 30.502 6.77999C30.9132 6.85164 31.5138 6.81647 32.0014 6.8169C32.0031 6.81689 32.0047 6.81648 32.0061 6.81569C32.0076 6.8149 32.0088 6.81377 32.0097 6.8124C32.0106 6.81102 32.0112 6.80945 32.0113 6.80781C32.0115 6.80617 32.0112 6.80452 32.0106 6.80301C31.8777 6.48037 31.8686 6.08694 31.869 5.74302C31.8707 4.70489 31.8719 3.663 31.8725 2.61734C31.8724 2.61342 31.8735 2.60956 31.8756 2.60619C31.8777 2.60282 31.8806 2.60007 31.8842 2.59823Z" fill="white"/>
<path d="M47.3841 5.47109L47.2209 5.81544C47.2154 5.82702 47.2061 5.8331 47.1931 5.83368C46.6798 5.86002 46.2017 5.78287 45.7588 5.60223C44.5876 5.12413 44.2702 3.67506 45.0475 2.70887C45.4539 2.20384 46.1257 1.93504 46.7684 1.88424C46.9835 1.86716 47.3841 1.86672 47.9704 1.88294C47.9843 1.88322 47.9912 1.89032 47.9912 1.90421C47.9915 3.25326 47.9914 4.60144 47.9908 5.94875C47.9908 6.66916 47.6534 7.24063 46.9204 7.39348C46.332 7.51637 45.8096 7.41476 45.262 7.20632C45.2472 7.20053 45.2423 7.19026 45.2472 7.17549L45.4135 6.66439C45.4205 6.64325 45.4339 6.63761 45.4539 6.64745C45.9099 6.87326 46.5226 6.95707 47.0042 6.74776C47.4983 6.53281 47.4171 5.90142 47.4011 5.47456C47.4002 5.44995 47.3946 5.4488 47.3841 5.47109ZM47.425 2.62202L47.7068 2.48089C47.7239 2.47249 47.7228 2.46801 47.7037 2.46743C47.207 2.45816 46.8645 2.4586 46.6763 2.46873C46.0514 2.50173 45.364 2.96246 45.242 3.60949C45.0687 4.52617 45.7388 5.19404 46.6164 5.24919C46.7933 5.26048 47.0503 5.26178 47.3876 5.2531C47.4012 5.25281 47.408 5.24586 47.408 5.23225V2.64937C47.408 2.63664 47.4137 2.62752 47.425 2.62202Z" fill="white"/>
<path d="M49.1787 6.82885C49.9578 6.97953 50.0055 6.56613 50.0077 5.92692C50.0117 4.58424 50.0135 3.24142 50.0129 1.89845C50.0129 1.88282 50.0206 1.875 50.0359 1.875H50.57C50.5877 1.875 50.5965 1.88383 50.5965 1.90149C50.5904 3.15327 50.5904 4.40447 50.5965 5.65509C50.6 6.26694 50.6274 7.12283 49.9165 7.3812C49.6484 7.47847 49.3492 7.47789 49.0189 7.37947C49.0079 7.37628 49.0039 7.36919 49.0068 7.35819L49.1462 6.84882C49.1508 6.83203 49.1616 6.82537 49.1787 6.82885Z" fill="white"/>
<path d="M42.282 7.97461H41.7253C41.7174 7.97461 41.7109 7.98103 41.7109 7.98894V8.54651C41.7109 8.55442 41.7174 8.56084 41.7253 8.56084H42.282C42.2899 8.56084 42.2963 8.55442 42.2963 8.54651V7.98894C42.2963 7.98103 42.2899 7.97461 42.282 7.97461Z" fill="white"/>
<path d="M43.4521 7.97266H42.8989C42.89 7.97266 42.8828 7.97985 42.8828 7.98872V8.54282C42.8828 8.55169 42.89 8.55888 42.8989 8.55888H43.4521C43.461 8.55888 43.4682 8.55169 43.4682 8.54282V7.98872C43.4682 7.97985 43.461 7.97266 43.4521 7.97266Z" fill="white"/>
<path d="M19.9608 9.06411L19.1261 8.28846C19.1206 8.2834 19.1121 8.28371 19.107 8.28916L18.3314 9.12386C18.3263 9.1293 18.3266 9.13782 18.3321 9.14288L19.1668 9.91853C19.1722 9.92359 19.1808 9.92328 19.1858 9.91783L19.9615 9.08314C19.9665 9.07769 19.9662 9.06917 19.9608 9.06411Z" fill="#71BA44"/>
<path d="M20.8575 10.2335L20.2018 9.60472C20.1966 9.59974 20.1883 9.59991 20.1834 9.60511L19.554 10.2614C19.549 10.2666 19.5492 10.2748 19.5544 10.2798L20.2101 10.9086C20.2152 10.9136 20.2235 10.9134 20.2285 10.9082L20.8578 10.2519C20.8628 10.2467 20.8627 10.2385 20.8575 10.2335Z" fill="white"/>
<path d="M18.0102 10.9084L17.3571 10.2801C17.3543 10.2773 17.3526 10.2735 17.3525 10.2695C17.3525 10.2655 17.3539 10.2617 17.3567 10.2588L17.9837 9.60613C17.9865 9.60328 17.9903 9.60165 17.9943 9.60157C17.9982 9.60148 18.0021 9.60297 18.005 9.60569L18.659 10.2327C18.6618 10.2355 18.6634 10.2393 18.6635 10.2433C18.6636 10.2473 18.6621 10.2511 18.6594 10.254L18.0315 10.908C18.0287 10.9108 18.0249 10.9125 18.0209 10.9126C18.017 10.9126 18.0131 10.9112 18.0102 10.9084Z" fill="#1E3871"/>
<path d="M24.3903 9.85039L23.2695 10.0561C23.262 10.0575 23.257 10.0647 23.2584 10.0723L23.4636 11.1904C23.465 11.198 23.4722 11.203 23.4798 11.2016L24.6005 10.9959C24.608 10.9945 24.613 10.9873 24.6117 10.9797L24.4064 9.86155C24.4051 9.854 24.3978 9.84901 24.3903 9.85039Z" fill="#3088C8"/>
<path d="M14.6969 10.2064L13.5673 10.0856C13.5587 10.0847 13.551 10.0909 13.5501 10.0995L13.4297 11.2265C13.4287 11.2351 13.435 11.2428 13.4435 11.2437L14.5731 11.3644C14.5817 11.3653 14.5894 11.3591 14.5903 11.3505L14.7107 10.2236C14.7117 10.215 14.7054 10.2073 14.6969 10.2064Z" fill="#71BA44"/>
<path d="M22.6633 10.3741L21.7704 10.5364C21.7624 10.5379 21.757 10.5456 21.7585 10.5536L21.9205 11.4448C21.9219 11.4528 21.9296 11.4582 21.9376 11.4567L22.8306 11.2944C22.8386 11.293 22.8439 11.2853 22.8425 11.2773L22.6805 10.386C22.679 10.378 22.6714 10.3727 22.6633 10.3741Z" fill="#1E3871"/>
<path d="M52.1097 17.1145V17.5852C52.0645 18.7799 51.7472 19.8768 51.1578 20.8759C48.3387 25.6538 40.7021 25.3477 38.467 20.145C37.6911 18.339 37.7249 16.163 38.5756 14.3961C39.96 11.5201 43.0266 10.1218 46.1284 10.5478C49.509 11.012 51.9855 13.6878 52.1097 17.1145ZM43.5212 13.4399C40.9005 14.4265 40.2496 17.8692 41.8411 19.9913C42.7882 21.2541 44.3675 21.7869 45.9056 21.4686C48.8389 20.862 49.8607 17.3125 48.3383 14.9671C47.3078 13.3795 45.289 12.7742 43.5212 13.4399Z" fill="white"/>
<path d="M2.94281 22.4809L4.86129 21.5294C4.89545 21.5126 4.9315 21.5042 4.96942 21.5042H9.9858C10.0009 21.5042 10.0084 21.5116 10.0084 21.5264L10.0088 24.0146C10.0088 24.02 10.0066 24.0252 10.0027 24.029C9.9988 24.0329 9.9935 24.035 9.98797 24.035H0.141503C0.128186 24.035 0.121528 24.0282 0.121528 24.0146L0.121094 21.7348C0.121102 21.7283 0.122544 21.7219 0.125319 21.7159C0.128094 21.71 0.132136 21.7048 0.137161 21.7005C1.54237 20.509 2.98102 19.3595 4.41446 18.2027C4.86202 17.8414 5.29525 17.4641 5.71415 17.0706C6.28387 16.5356 6.79194 15.9034 6.86663 15.1018C6.97258 13.9632 6.32209 13.185 5.17178 13.1425C3.92724 13.0964 3.07959 14.0209 2.37351 14.9116C2.3628 14.9249 2.35079 14.9262 2.33747 14.9155L0.308253 13.2849C0.300436 13.2785 0.299423 13.2713 0.305213 13.2632C1.23319 11.9726 2.3696 10.9144 3.99367 10.6243C6.10453 10.2474 8.62054 10.7672 9.55068 12.9444C9.94324 13.8637 9.96539 15.0397 9.70267 15.992C9.2706 17.5596 7.83499 18.6977 6.60261 19.6296C5.36965 20.5624 4.14769 21.5096 2.93673 22.4713C2.9098 22.493 2.91183 22.4962 2.94281 22.4809Z" fill="white"/>
<path d="M16.2179 10.641L15.3146 10.5444C15.307 10.5436 15.3001 10.5492 15.2993 10.5568L15.203 11.4584C15.2021 11.466 15.2077 11.4728 15.2153 11.4736L16.1186 11.5702C16.1262 11.571 16.1331 11.5655 16.1339 11.5578L16.2302 10.6563C16.231 10.6486 16.2255 10.6418 16.2179 10.641Z" fill="#27B8BE"/>
<path d="M19.6113 11.0921L19.1054 10.607C19.1001 10.6018 19.0915 10.602 19.0864 10.6074L18.6013 11.1132C18.5961 11.1186 18.5963 11.1271 18.6017 11.1323L19.1075 11.6174C19.1129 11.6225 19.1214 11.6223 19.1266 11.617L19.6117 11.1111C19.6168 11.1057 19.6166 11.0972 19.6113 11.0921Z" fill="#D0DA33"/>
<path d="M34.2154 12.1591C34.217 12.1578 34.218 12.1559 34.2182 12.1538C34.2184 12.1518 34.2178 12.1497 34.2164 12.1481C34.2151 12.1465 34.2132 12.1454 34.2111 12.1452C34.2091 12.145 34.207 12.1457 34.2054 12.147L32.567 13.1996C32.5534 13.2083 32.5386 13.2126 32.5227 13.2126H27.9353C27.9214 13.2126 27.9145 13.2058 27.9145 13.1922V10.7235C27.9145 10.7099 27.9213 10.7031 27.9349 10.7031L36.9207 10.7036C36.9262 10.7036 36.9315 10.7058 36.9354 10.7097C36.9393 10.7136 36.9415 10.7189 36.9415 10.7244V12.8874C36.9415 12.8942 36.9402 12.901 36.9375 12.9074C36.9348 12.9137 36.9309 12.9195 36.9259 12.9243L33.5801 16.1125C33.5779 16.1145 33.5763 16.1171 33.5756 16.12C33.5749 16.1229 33.5749 16.1259 33.5759 16.1287C33.5768 16.1315 33.5785 16.134 33.5807 16.1359C33.583 16.1378 33.5858 16.139 33.5887 16.1394C35.4621 16.4273 36.9472 17.4482 37.1365 19.4523C37.2746 20.913 36.7353 22.3756 35.5598 23.281C34.432 24.1499 32.9613 24.3497 31.5699 24.2272C29.7817 24.0697 28.3066 23.3185 27.1446 21.9735C27.1412 21.9696 27.1394 21.9646 27.1397 21.9594C27.1399 21.9543 27.1421 21.9493 27.1459 21.9457L29.1477 20.042C29.1489 20.0409 29.1502 20.04 29.1516 20.0395C29.1531 20.039 29.1546 20.0387 29.1562 20.0388C29.1577 20.0389 29.1592 20.0393 29.1606 20.04C29.162 20.0407 29.1632 20.0416 29.1642 20.0428C30.1152 21.1332 31.2577 21.7472 32.7415 21.6135C32.8976 21.5996 33.0818 21.5491 33.2943 21.4619C33.8853 21.2205 34.2345 20.7211 34.2714 20.0941C34.3561 18.6576 32.8549 18.282 31.7324 18.2824C31.3068 18.2827 30.8809 18.282 30.4548 18.2802C30.4409 18.2802 30.4322 18.2733 30.4288 18.2594L29.9815 16.4364C29.978 16.4225 29.9813 16.4104 29.9915 16.4L34.2154 12.1591Z" fill="white"/>
<path d="M21.5432 11.3795L21.0367 10.8938C21.0316 10.8888 21.0233 10.889 21.0183 10.8942L20.5326 11.4007C20.5276 11.4058 20.5278 11.4141 20.533 11.4191L21.0395 11.9048C21.0447 11.9098 21.0529 11.9096 21.0579 11.9044L21.5436 11.3979C21.5486 11.3927 21.5484 11.3845 21.5432 11.3795Z" fill="#71BA44"/>
<path d="M17.4621 11.1287L16.7644 11.0542C16.757 11.0534 16.7503 11.0587 16.7495 11.0661L16.6751 11.763C16.6743 11.7704 16.6796 11.777 16.687 11.7778L17.3848 11.8524C17.3922 11.8532 17.3988 11.8478 17.3996 11.8405L17.4741 11.1436C17.4749 11.1362 17.4695 11.1295 17.4621 11.1287Z" fill="#3088C8"/>
<path d="M18.7515 11.8963L18.2425 11.4082C18.238 11.4039 18.2309 11.404 18.2266 11.4085L17.7385 11.9175C17.7341 11.922 17.7343 11.9292 17.7388 11.9335L18.2478 12.4216C18.2523 12.4259 18.2594 12.4258 18.2637 12.4213L18.7519 11.9123C18.7562 11.9078 18.756 11.9006 18.7515 11.8963Z" fill="#D0DA33"/>
<path d="M20.5169 11.9548L20.0123 11.4709C20.0066 11.4654 19.9975 11.4656 19.992 11.4713L19.5081 11.9759C19.5027 11.9816 19.5028 11.9907 19.5086 11.9961L20.0132 12.48C20.0189 12.4855 20.0279 12.4853 20.0334 12.4796L20.5173 11.975C20.5228 11.9693 20.5226 11.9602 20.5169 11.9548Z" fill="#27B8BE"/>
<path d="M24.4462 11.6558L23.5519 11.8199C23.5448 11.8212 23.5401 11.828 23.5414 11.8351L23.7054 12.7286C23.7067 12.7357 23.7135 12.7404 23.7206 12.7391L24.6149 12.5749C24.622 12.5736 24.6267 12.5668 24.6254 12.5597L24.4614 11.6662C24.4601 11.6592 24.4533 11.6545 24.4462 11.6558Z" fill="#27B8BE"/>
<path d="M22.9713 11.8292L22.28 11.9548C22.2731 11.956 22.2686 11.9626 22.2698 11.9694L22.3953 12.6598C22.3965 12.6667 22.4031 12.6712 22.4099 12.67L23.1012 12.5444C23.1081 12.5431 23.1126 12.5366 23.1114 12.5297L22.9859 11.8393C22.9846 11.8324 22.9781 11.8279 22.9713 11.8292Z" fill="#D0DA33"/>
<path d="M14.4805 11.9829L13.5755 11.8861C13.5683 11.8854 13.5619 11.8906 13.5611 11.8977L13.4646 12.801C13.4638 12.8082 13.469 12.8146 13.4762 12.8154L14.3812 12.9121C14.3883 12.9128 14.3947 12.9077 14.3955 12.9005L14.492 11.9972C14.4928 11.9901 14.4876 11.9836 14.4805 11.9829Z" fill="white"/>
<path d="M15.7581 12.0818L15.0612 12.0073C15.0538 12.0065 15.0472 12.0119 15.0464 12.0192L14.9719 12.7161C14.9712 12.7235 14.9765 12.7302 14.9839 12.731L15.6808 12.8054C15.6882 12.8062 15.6948 12.8009 15.6956 12.7935L15.7701 12.0966C15.7709 12.0892 15.7655 12.0826 15.7581 12.0818Z" fill="#D0DA33"/>
<path d="M21.897 12.1205L21.2025 12.248C21.1964 12.2491 21.1923 12.255 21.1934 12.2611L21.3204 12.953C21.3216 12.9592 21.3274 12.9632 21.3336 12.9621L22.0281 12.8346C22.0342 12.8335 22.0382 12.8276 22.0371 12.8215L21.9101 12.1296C21.909 12.1234 21.9031 12.1194 21.897 12.1205Z" fill="#27B8BE"/>
<path d="M17.006 12.2117L16.3046 12.1379C16.2982 12.1373 16.2924 12.1419 16.2917 12.1484L16.2181 12.8489C16.2174 12.8553 16.2221 12.8611 16.2286 12.8617L16.9299 12.9355C16.9363 12.9361 16.9421 12.9315 16.9428 12.925L17.0164 12.2245C17.0171 12.2181 17.0124 12.2123 17.006 12.2117Z" fill="#71BA44"/>
<path d="M19.5191 12.5671L19.1718 12.2329C19.1659 12.2272 19.1565 12.2274 19.1509 12.2333L18.8167 12.5806C18.811 12.5865 18.8112 12.5958 18.8171 12.6015L19.1644 12.9357C19.1703 12.9414 19.1796 12.9412 19.1853 12.9353L19.5195 12.588C19.5251 12.5821 19.525 12.5728 19.5191 12.5671Z" fill="#71BA44"/>
<path d="M20.9184 12.847L20.568 12.511C20.5628 12.506 20.5546 12.5062 20.5496 12.5114L20.2136 12.8618C20.2086 12.867 20.2087 12.8752 20.2139 12.8802L20.5643 13.2162C20.5695 13.2212 20.5778 13.221 20.5828 13.2158L20.9188 12.8654C20.9238 12.8602 20.9236 12.852 20.9184 12.847Z" fill="#71BA44"/>
<path d="M17.8665 12.672L17.3872 12.6208C17.3788 12.6199 17.3713 12.6259 17.3705 12.6343L17.3194 13.1118C17.3185 13.1202 17.3246 13.1276 17.3329 13.1285L17.8122 13.1798C17.8205 13.1806 17.828 13.1746 17.8289 13.1663L17.88 12.6887C17.8809 12.6804 17.8748 12.6729 17.8665 12.672Z" fill="white"/>
<path d="M23.1955 13.0588L22.5095 13.1847C22.501 13.1862 22.4954 13.1944 22.497 13.2029L22.6227 13.888C22.6243 13.8965 22.6324 13.9021 22.6409 13.9005L23.3268 13.7746C23.3353 13.7731 23.3409 13.7649 23.3394 13.7564L23.2137 13.0713C23.2121 13.0628 23.2039 13.0572 23.1955 13.0588Z" fill="#71BA44"/>
<path d="M15.7305 13.1949L15.037 13.1208C15.0284 13.1199 15.0207 13.1261 15.0198 13.1347L14.946 13.8255C14.9451 13.8341 14.9513 13.8418 14.9599 13.8427L15.6533 13.9169C15.6619 13.9178 15.6696 13.9116 15.6705 13.903L15.7444 13.2121C15.7453 13.2035 15.7391 13.1958 15.7305 13.1949Z" fill="#27B8BE"/>
<path d="M22.0694 13.1834L21.5919 13.2711C21.5848 13.2724 21.5802 13.2792 21.5815 13.2863L21.6689 13.7629C21.6702 13.77 21.677 13.7747 21.6841 13.7734L22.1616 13.6857C22.1687 13.6844 22.1734 13.6776 22.1721 13.6706L22.0846 13.1939C22.0833 13.1868 22.0765 13.1821 22.0694 13.1834Z" fill="white"/>
<path d="M24.3684 13.1891L23.6756 13.3162C23.6692 13.3174 23.665 13.3235 23.6662 13.3299L23.7932 14.0218C23.7943 14.0282 23.8004 14.0324 23.8068 14.0312L24.4996 13.9041C24.506 13.9029 24.5102 13.8968 24.509 13.8904L24.382 13.1985C24.3808 13.1921 24.3747 13.1879 24.3684 13.1891Z" fill="white"/>
<path d="M14.2112 13.2581L13.6046 13.604C13.5975 13.6081 13.5951 13.6171 13.5991 13.6242L13.9451 14.2307C13.9491 14.2378 13.9581 14.2402 13.9652 14.2362L14.5717 13.8902C14.5788 13.8862 14.5813 13.8772 14.5773 13.8701L14.2313 13.2636C14.2273 13.2565 14.2182 13.254 14.2112 13.2581Z" fill="#71BA44"/>
<path d="M16.592 13.3052L16.1058 13.2532C16.0992 13.2525 16.0932 13.2574 16.0925 13.264L16.0408 13.7476C16.0401 13.7543 16.0449 13.7603 16.0516 13.761L16.5378 13.813C16.5444 13.8137 16.5504 13.8089 16.5511 13.8022L16.6028 13.3186C16.6035 13.3119 16.5987 13.3059 16.592 13.3052Z" fill="#1E3871"/>
<path d="M26.0088 13.7251L25.1897 13.3362C25.1826 13.3328 25.174 13.3359 25.1706 13.343L24.7821 14.1613C24.7787 14.1684 24.7817 14.177 24.7889 14.1804L25.6079 14.5693C25.6151 14.5727 25.6236 14.5697 25.627 14.5625L26.0156 13.7442C26.0189 13.7371 26.0159 13.7285 26.0088 13.7251Z" fill="#27B8BE"/>
<path d="M19.7562 15.2963C19.9944 15.8229 19.9445 16.3152 19.6064 16.7732C19.5667 16.827 19.5576 16.8222 19.579 16.7588C19.7032 16.3863 19.7093 15.8222 19.3562 15.5473C19.354 15.5457 19.3514 15.5447 19.3487 15.5444C19.346 15.5441 19.3432 15.5445 19.3407 15.5456C19.3382 15.5467 19.3361 15.5485 19.3344 15.5507C19.3328 15.5529 19.3318 15.5554 19.3315 15.5582C19.2394 16.5382 19.2373 17.5105 19.3849 18.485C19.3852 18.4876 19.3863 18.49 19.3879 18.4921C19.3895 18.4941 19.3916 18.4957 19.394 18.4967C19.3965 18.4977 19.3991 18.498 19.4017 18.4976C19.4043 18.4972 19.4067 18.4962 19.4088 18.4945C20.1518 17.9152 20.9586 17.5696 21.9183 17.6851C22.2266 17.7224 22.5255 17.8206 22.815 17.9795C22.8211 17.983 22.8248 17.9867 22.8263 17.9908C22.8274 17.9946 22.8274 17.9985 22.8263 18.0025C22.8254 18.0066 22.8229 18.008 22.8189 18.0069C21.5275 17.5961 20.3689 18.1258 19.4014 18.9461C19.3933 18.9531 19.3933 18.9602 19.4014 18.9674C19.8 19.3252 20.1952 19.7195 20.636 20.0244C20.638 20.0258 20.6404 20.0266 20.6429 20.0266C20.6454 20.0266 20.6478 20.0258 20.6498 20.0244C21.1015 19.6774 21.3737 20.2984 21.0155 20.4629C20.7159 20.601 20.3342 20.3044 20.1136 20.1069C19.7838 19.8113 19.4576 19.5106 19.1348 19.2049C19.1296 19.2001 19.1228 19.1975 19.1158 19.1975C19.1087 19.1975 19.102 19.2001 19.097 19.2049C18.7745 19.5086 18.4472 19.8107 18.1152 20.1112C17.9059 20.3005 17.5402 20.5871 17.2402 20.4725C16.7855 20.2992 17.228 19.6544 17.5494 20.0157C17.5595 20.0267 17.5711 20.0286 17.5841 20.0213C17.6753 19.9715 17.7503 19.9216 17.809 19.8715C18.1463 19.5837 18.4836 19.2844 18.8208 18.9735C18.8232 18.9714 18.8251 18.9688 18.8263 18.9659C18.8276 18.963 18.8283 18.9598 18.8282 18.9567C18.8282 18.9535 18.8275 18.9504 18.8261 18.9475C18.8248 18.9446 18.8228 18.9421 18.8204 18.94C17.8724 18.1267 16.6904 17.5969 15.419 18.0056C15.4114 18.0082 15.4061 18.0058 15.4029 17.9986L15.3985 17.9882C15.3983 17.9876 15.3985 17.987 15.3994 17.9865C16.6044 17.3677 17.7964 17.682 18.8126 18.4902C18.8299 18.5041 18.8405 18.5 18.8443 18.478C18.9967 17.5192 18.9971 16.5283 18.8968 15.5642C18.8954 15.548 18.8878 15.5446 18.8742 15.5538C18.5138 15.7979 18.5329 16.4101 18.6532 16.7597C18.6758 16.8251 18.6664 16.8301 18.625 16.7745C18.2839 16.3159 18.2337 15.8229 18.4743 15.2954C18.4836 15.2752 18.4792 15.2717 18.4613 15.285C18.1091 15.5499 17.9871 16.0441 18.0396 16.4458C18.0466 16.5002 18.0383 16.5026 18.0149 16.4531C17.7695 15.9381 17.9159 15.2976 18.3492 14.9394C18.3999 14.8977 18.3937 14.8857 18.3306 14.9033C17.8989 15.0253 17.6206 15.457 17.6132 15.8895C17.612 15.9538 17.6032 15.9549 17.5867 15.893C17.436 15.3324 17.7478 14.7357 18.3306 14.6193C18.4406 14.5973 18.4396 14.5842 18.3275 14.5798C17.9979 14.5668 17.651 14.6753 17.4703 14.9659C17.4553 14.9905 17.4496 14.9884 17.4534 14.9598C17.5229 14.4317 18.1065 14.2025 18.5737 14.3427C18.5899 14.3476 18.5936 14.3429 18.5846 14.3284C18.4426 14.1017 18.0917 14.0579 17.859 14.1286C17.8433 14.1333 17.8409 14.1294 17.8516 14.1169C18.1408 13.7856 18.6176 13.8056 18.8721 14.1695C18.8822 14.1836 18.8915 14.1831 18.8998 14.1677C18.9939 13.9963 19.0599 13.8151 19.0979 13.624C19.1092 13.5682 19.1204 13.568 19.1317 13.6236C19.1711 13.8155 19.2375 13.9976 19.3311 14.1699C19.3324 14.1721 19.3342 14.174 19.3365 14.1754C19.3387 14.1767 19.3413 14.1775 19.3438 14.1776C19.3464 14.1776 19.3489 14.1771 19.3512 14.1759C19.3534 14.1747 19.3553 14.1729 19.3567 14.1708C19.6029 13.8003 20.0992 13.793 20.3845 14.1195C20.397 14.1337 20.3942 14.138 20.3763 14.1325C20.1053 14.0489 19.8688 14.1026 19.6667 14.2936C19.6068 14.3501 19.6159 14.365 19.6941 14.3384C20.1097 14.1968 20.606 14.4209 20.7575 14.8569C20.8059 14.9958 20.7897 15.0039 20.7089 14.8812C20.6695 14.821 20.583 14.7589 20.4492 14.6949C20.2637 14.6057 20.0778 14.5681 19.8917 14.582C19.81 14.5881 19.8093 14.5992 19.8895 14.6154C20.4696 14.7322 20.8114 15.3406 20.6403 15.9016C20.6284 15.941 20.6216 15.9402 20.6199 15.899C20.6016 15.4557 20.3294 15.0154 19.8847 14.899C19.8427 14.8883 19.8382 14.897 19.8713 14.925C20.3085 15.2994 20.464 15.9229 20.2139 16.4527C20.1939 16.495 20.1858 16.4928 20.1896 16.4462C20.2269 15.985 20.1292 15.589 19.7688 15.2868C19.7505 15.2714 19.7463 15.2746 19.7562 15.2963Z" fill="white"/>
<path d="M12.9149 13.5888L12.1288 14.0372C12.1213 14.0415 12.1187 14.051 12.123 14.0585L12.5714 14.8446C12.5756 14.8521 12.5852 14.8547 12.5927 14.8504L13.3788 14.402C13.3863 14.3978 13.3889 14.3882 13.3846 14.3807L12.9362 13.5946C12.9319 13.5871 12.9224 13.5845 12.9149 13.5888Z" fill="#1E3871"/>
<path d="M27.7161 14.3094L26.6868 13.8206C26.6796 13.8172 26.6711 13.8202 26.6677 13.8274L26.1797 14.8551C26.1763 14.8623 26.1793 14.8708 26.1865 14.8742L27.2158 15.363C27.2229 15.3664 27.2315 15.3633 27.2349 15.3562L27.7229 14.3284C27.7263 14.3213 27.7232 14.3127 27.7161 14.3094Z" fill="#1E3871"/>
<path d="M10.4409 14.6859L11.4262 14.1253C11.4281 14.1242 11.4302 14.1235 11.4323 14.1232C11.4345 14.1229 11.4367 14.123 11.4388 14.1236C11.4409 14.1242 11.4428 14.1252 11.4446 14.1265C11.4463 14.1278 11.4477 14.1295 11.4488 14.1313L12.0111 15.1149C12.0122 15.1168 12.0129 15.1189 12.0132 15.121C12.0135 15.1232 12.0134 15.1254 12.0128 15.1275C12.0122 15.1296 12.0112 15.1315 12.0099 15.1332C12.0086 15.135 12.0069 15.1364 12.0051 15.1375L11.0189 15.6972C11.017 15.6983 11.0149 15.699 11.0128 15.6993C11.0106 15.6996 11.0084 15.6994 11.0063 15.6989C11.0042 15.6983 11.0023 15.6973 11.0006 15.696C10.9988 15.6947 10.9974 15.693 10.9963 15.6911L10.4348 14.7085C10.4337 14.7066 10.433 14.7045 10.4328 14.7023C10.4325 14.7002 10.4326 14.698 10.4332 14.6959C10.4337 14.6938 10.4347 14.6918 10.436 14.6901C10.4374 14.6884 10.439 14.687 10.4409 14.6859Z" fill="#27B8BE"/>
<path d="M23.0384 14.2267L22.5643 14.3137C22.5563 14.3152 22.551 14.3229 22.5525 14.3309L22.6393 14.8042C22.6408 14.8122 22.6485 14.8175 22.6565 14.816L23.1306 14.729C23.1386 14.7275 23.1439 14.7198 23.1425 14.7118L23.0556 14.2386C23.0541 14.2306 23.0464 14.2253 23.0384 14.2267Z" fill="#71BA44"/>
<path d="M15.4453 14.2717L15.0213 14.5135C15.0155 14.5168 15.0134 14.5243 15.0168 14.5301L15.2582 14.9533C15.2615 14.9591 15.2689 14.9612 15.2747 14.9578L15.6987 14.716C15.7046 14.7127 15.7066 14.7053 15.7033 14.6994L15.4619 14.2762C15.4585 14.2704 15.4511 14.2684 15.4453 14.2717Z" fill="#71BA44"/>
<path d="M24.3619 14.6915L23.728 14.3905C23.7213 14.3874 23.7132 14.3902 23.71 14.3969L23.4094 15.03C23.4062 15.0368 23.4091 15.0448 23.4158 15.048L24.0497 15.349C24.0564 15.3522 24.0645 15.3493 24.0676 15.3426L24.3683 14.7095C24.3715 14.7028 24.3686 14.6947 24.3619 14.6915Z" fill="#3088C8"/>
<path d="M14.4769 14.4028L13.8643 14.7522C13.8589 14.7553 13.857 14.7622 13.8601 14.7676L14.2091 15.3794C14.2121 15.3848 14.219 15.3867 14.2245 15.3836L14.837 15.0342C14.8424 15.0312 14.8443 15.0243 14.8412 15.0188L14.4923 14.407C14.4892 14.4016 14.4823 14.3997 14.4769 14.4028Z" fill="#D0DA33"/>
<path d="M25.4043 15.0834L24.7727 14.7835C24.7656 14.7801 24.757 14.7831 24.7536 14.7903L24.4541 15.4211C24.4507 15.4282 24.4538 15.4368 24.4609 15.4401L25.0925 15.74C25.0996 15.7434 25.1082 15.7404 25.1115 15.7332L25.4111 15.1025C25.4145 15.0953 25.4114 15.0868 25.4043 15.0834Z" fill="#D0DA33"/>
<path d="M13.386 15.0256L12.7794 15.3716C12.7723 15.3756 12.7699 15.3846 12.7739 15.3917L13.1194 15.9975C13.1235 16.0046 13.1325 16.0071 13.1396 16.003L13.7461 15.6571C13.7532 15.653 13.7557 15.644 13.7516 15.6369L13.4061 15.0311C13.4021 15.0241 13.393 15.0216 13.386 15.0256Z" fill="#3088C8"/>
<path d="M26.7027 15.806L25.8813 15.4159C25.8746 15.4127 25.8666 15.4156 25.8634 15.4223L25.4737 16.2429C25.4705 16.2497 25.4734 16.2577 25.4801 16.2609L26.3015 16.6509C26.3082 16.6541 26.3162 16.6512 26.3194 16.6445L26.7091 15.8239C26.7123 15.8172 26.7094 15.8092 26.7027 15.806Z" fill="#71BA44"/>
<path d="M23.8814 15.6583L23.4416 15.4486C23.4356 15.4457 23.4283 15.4483 23.4254 15.4543L23.2157 15.8941C23.2128 15.9002 23.2154 15.9074 23.2214 15.9103L23.6612 16.1201C23.6672 16.1229 23.6745 16.1204 23.6774 16.1143L23.8871 15.6746C23.89 15.6685 23.8875 15.6612 23.8814 15.6583Z" fill="#71BA44"/>
<path d="M14.7789 15.5318L14.3584 15.7726C14.3519 15.7763 14.3497 15.7845 14.3534 15.791L14.5938 16.2108C14.5975 16.2172 14.6057 16.2194 14.6122 16.2157L15.0327 15.9749C15.0391 15.9712 15.0414 15.963 15.0377 15.9565L14.7973 15.5368C14.7936 15.5303 14.7853 15.5281 14.7789 15.5318Z" fill="white"/>
<path d="M12.293 15.6917L11.5039 16.1418C11.4974 16.1455 11.4952 16.1537 11.4989 16.1601L11.9489 16.9492C11.9526 16.9557 11.9609 16.9579 11.9673 16.9543L12.7564 16.5042C12.7629 16.5005 12.7651 16.4923 12.7614 16.4858L12.3113 15.6967C12.3077 15.6902 12.2994 15.688 12.293 15.6917Z" fill="#71BA44"/>
<path d="M24.8641 16.2117L24.2401 15.9141C24.231 15.9098 24.2201 15.9136 24.2158 15.9227L23.9182 16.5467C23.9138 16.5558 23.9177 16.5667 23.9268 16.571L24.5507 16.8686C24.5598 16.873 24.5707 16.8691 24.5751 16.86L24.8727 16.236C24.877 16.2269 24.8732 16.2161 24.8641 16.2117Z" fill="white"/>
<path d="M14.0198 15.9419L13.408 16.2909C13.4022 16.2942 13.4002 16.3016 13.4035 16.3074L13.7516 16.9177C13.7549 16.9236 13.7623 16.9256 13.7682 16.9223L14.38 16.5733C14.3858 16.57 14.3879 16.5626 14.3845 16.5567L14.0364 15.9464C14.0331 15.9406 14.0257 15.9386 14.0198 15.9419Z" fill="#27B8BE"/>
<path d="M25.7408 17.004L25.1061 16.7027C25.0998 16.6997 25.0923 16.7024 25.0893 16.7086L24.7883 17.3425C24.7853 17.3488 24.788 17.3563 24.7943 17.3593L25.429 17.6607C25.4353 17.6637 25.4428 17.661 25.4458 17.6547L25.7468 17.0208C25.7497 17.0145 25.7471 17.007 25.7408 17.004Z" fill="#D0DA33"/>
<path d="M24.0554 17.0672L23.6176 16.8593C23.6109 16.8561 23.6029 16.859 23.5997 16.8657L23.3922 17.3027C23.389 17.3094 23.3919 17.3174 23.3986 17.3206L23.8364 17.5285C23.8431 17.5317 23.8511 17.5288 23.8543 17.5221L24.0618 17.0851C24.065 17.0784 24.0621 17.0703 24.0554 17.0672Z" fill="#27B8BE"/>
<path d="M13.4778 17.1661L12.8437 16.8758C12.8356 16.8721 12.8261 16.8757 12.8224 16.8837L12.5325 17.5171C12.5288 17.5251 12.5323 17.5347 12.5404 17.5384L13.1745 17.8287C13.1825 17.8324 13.1921 17.8288 13.1958 17.8207L13.4857 17.1874C13.4894 17.1794 13.4859 17.1698 13.4778 17.1661Z" fill="#1E3871"/>
<path d="M14.8738 17.18L14.4339 16.9786C14.4267 16.9753 14.4182 16.9785 14.4149 16.9857L14.2139 17.4247C14.2106 17.4319 14.2138 17.4404 14.221 17.4437L14.6608 17.6451C14.668 17.6484 14.6765 17.6452 14.6798 17.638L14.8808 17.199C14.8841 17.1918 14.881 17.1833 14.8738 17.18Z" fill="#71BA44"/>
<path d="M24.4988 17.6016L23.8833 17.9386C23.8766 17.9423 23.8741 17.9508 23.8778 17.9575L24.2143 18.5723C24.218 18.579 24.2265 18.5815 24.2332 18.5778L24.8487 18.2408C24.8555 18.2371 24.8579 18.2287 24.8542 18.2219L24.5177 17.6072C24.514 17.6004 24.5055 17.598 24.4988 17.6016Z" fill="#1E3871"/>
<path d="M26.3032 17.5981L25.5056 18.0348C25.4993 18.0382 25.4969 18.0461 25.5004 18.0524L25.9366 18.8493C25.9401 18.8556 25.948 18.8579 25.9543 18.8544L26.7519 18.4178C26.7582 18.4143 26.7606 18.4064 26.7571 18.4001L26.3208 17.6033C26.3174 17.5969 26.3095 17.5946 26.3032 17.5981Z" fill="#27B8BE"/>
<path d="M13.4164 18.2935L13.7064 17.6591C13.7072 17.6573 13.7084 17.6557 13.7098 17.6544C13.7112 17.6531 13.7129 17.652 13.7147 17.6513C13.7165 17.6507 13.7184 17.6503 13.7204 17.6504C13.7223 17.6505 13.7242 17.6509 13.726 17.6517L14.3613 17.9418C14.363 17.9426 14.3646 17.9437 14.366 17.9451C14.3673 17.9465 14.3683 17.9482 14.369 17.95C14.3697 17.9518 14.37 17.9538 14.3699 17.9557C14.3699 17.9576 14.3694 17.9596 14.3686 17.9613L14.0786 18.5953C14.0778 18.5971 14.0766 18.5987 14.0752 18.6C14.0738 18.6013 14.0721 18.6024 14.0703 18.6031C14.0685 18.6037 14.0666 18.6041 14.0646 18.604C14.0627 18.6039 14.0608 18.6035 14.059 18.6027L13.4237 18.3131C13.422 18.3123 13.4204 18.3111 13.419 18.3097C13.4177 18.3083 13.4167 18.3066 13.416 18.3048C13.4153 18.303 13.415 18.3011 13.415 18.2991C13.4151 18.2972 13.4156 18.2953 13.4164 18.2935Z" fill="#D0DA33"/>
<path d="M12.8114 18.2752L11.9831 17.8978C11.9768 17.8949 11.9693 17.8977 11.9665 17.904L11.5894 18.7315C11.5865 18.7378 11.5893 18.7453 11.5956 18.7482L12.4238 19.1256C12.4302 19.1285 12.4376 19.1257 12.4405 19.1194L12.8176 18.2919C12.8205 18.2856 12.8177 18.2781 12.8114 18.2752Z" fill="#3088C8"/>
<path d="M23.6462 18.2928L23.22 18.5271C23.2139 18.5305 23.2117 18.5381 23.2151 18.5442L23.4494 18.9704C23.4527 18.9765 23.4604 18.9788 23.4665 18.9754L23.8926 18.7411C23.8987 18.7377 23.901 18.7301 23.8976 18.724L23.6633 18.2978C23.66 18.2917 23.6523 18.2895 23.6462 18.2928Z" fill="white"/>
<path d="M15.0736 18.586L14.6318 18.3847C14.6248 18.3815 14.6166 18.3846 14.6134 18.3916L14.4124 18.8325C14.4092 18.8395 14.4123 18.8478 14.4193 18.8509L14.8611 19.0523C14.868 19.0554 14.8763 19.0524 14.8795 19.0454L15.0804 18.6044C15.0836 18.5974 15.0805 18.5892 15.0736 18.586Z" fill="#1E3871"/>
<path d="M25.1137 18.5287L24.502 18.8636C24.4944 18.8677 24.4916 18.8772 24.4958 18.8848L24.8307 19.4965C24.8348 19.5041 24.8443 19.5069 24.8519 19.5027L25.4636 19.1678C25.4712 19.1637 25.474 19.1542 25.4698 19.1466L25.1349 18.5349C25.1308 18.5273 25.1213 18.5245 25.1137 18.5287Z" fill="#1E3871"/>
<path d="M13.843 19.0812L13.206 18.7909C13.199 18.7877 13.1908 18.7908 13.1876 18.7978L12.8977 19.434C12.8945 19.441 12.8976 19.4492 12.9046 19.4524L13.5415 19.7427C13.5485 19.7459 13.5568 19.7428 13.5599 19.7358L13.8499 19.0996C13.853 19.0926 13.85 19.0844 13.843 19.0812Z" fill="#27B8BE"/>
<path d="M27.2312 18.8686L26.2333 19.415C26.2263 19.4188 26.2238 19.4275 26.2276 19.4344L26.7735 20.4316C26.7773 20.4386 26.786 20.4411 26.793 20.4373L27.7909 19.891C27.7979 19.8872 27.8004 19.8784 27.7966 19.8715L27.2507 18.8743C27.2469 18.8674 27.2382 18.8648 27.2312 18.8686Z" fill="#3088C8"/>
<path d="M24.0176 19.1333L23.4021 19.4703C23.3957 19.4738 23.3934 19.4817 23.3969 19.488L23.7335 20.1028C23.7369 20.1091 23.7448 20.1114 23.7511 20.1079L24.3667 19.7709C24.373 19.7675 24.3753 19.7596 24.3718 19.7533L24.0353 19.1385C24.0318 19.1322 24.0239 19.1299 24.0176 19.1333Z" fill="#D0DA33"/>
<path d="M14.8932 19.4535L14.2593 19.1647C14.2515 19.1611 14.2422 19.1646 14.2386 19.1724L13.9498 19.8062C13.9462 19.8141 13.9497 19.8234 13.9575 19.8269L14.5913 20.1158C14.5992 20.1194 14.6085 20.1159 14.6121 20.1081L14.9009 19.4742C14.9045 19.4664 14.901 19.4571 14.8932 19.4535Z" fill="#71BA44"/>
<path d="M12.1268 19.6732L11.0916 19.2014C11.0841 19.1981 11.0754 19.2013 11.072 19.2087L10.6013 20.2417C10.5979 20.2491 10.6012 20.2578 10.6086 20.2612L11.6439 20.733C11.6513 20.7364 11.66 20.7331 11.6634 20.7257L12.1342 19.6928C12.1375 19.6854 12.1343 19.6766 12.1268 19.6732Z" fill="#27B8BE"/>
<path d="M22.9607 19.5399L22.5349 19.773C22.5286 19.7765 22.5262 19.7844 22.5297 19.7907L22.7624 20.2158C22.7659 20.2221 22.7738 20.2244 22.7801 20.221L23.2059 19.9878C23.2123 19.9844 23.2146 19.9765 23.2111 19.9701L22.9784 19.5451C22.9749 19.5388 22.967 19.5364 22.9607 19.5399Z" fill="#27B8BE"/>
<path d="M15.6562 19.6763L15.1853 19.7704C15.1768 19.7721 15.1713 19.7803 15.173 19.7888L15.2669 20.2589C15.2686 20.2673 15.2768 20.2728 15.2853 20.2711L15.7563 20.177C15.7647 20.1753 15.7702 20.1671 15.7685 20.1586L15.6746 19.6885C15.6729 19.6801 15.6647 19.6746 15.6562 19.6763Z" fill="white"/>
<path d="M25.6447 19.6896L24.8449 20.1293C24.8394 20.1323 24.8374 20.1392 24.8404 20.1447L25.2797 20.9438C25.2827 20.9492 25.2896 20.9512 25.295 20.9482L26.0949 20.5085C26.1004 20.5055 26.1024 20.4986 26.0994 20.4932L25.6601 19.694C25.6571 19.6886 25.6502 19.6866 25.6447 19.6896Z" fill="#27B8BE"/>
<path d="M13.5373 20.3448L12.7123 19.9688C12.7051 19.9656 12.6966 19.9687 12.6933 19.9759L12.3176 20.8002C12.3144 20.8074 12.3175 20.8159 12.3247 20.8192L13.1498 21.1952C13.157 21.1985 13.1655 21.1953 13.1688 21.1881L13.5444 20.3638C13.5477 20.3566 13.5445 20.3481 13.5373 20.3448Z" fill="#D0DA33"/>
<path d="M24.2602 20.2826L23.6477 20.6179C23.6406 20.6218 23.6379 20.6308 23.6419 20.638L23.9768 21.2497C23.9807 21.2568 23.9896 21.2594 23.9968 21.2555L24.6093 20.9202C24.6164 20.9163 24.6191 20.9073 24.6151 20.9002L24.2802 20.2884C24.2763 20.2813 24.2673 20.2787 24.2602 20.2826Z" fill="#71BA44"/>
<path d="M14.7316 20.7366L14.0986 20.4481C14.0905 20.4444 14.081 20.448 14.0773 20.456L13.7892 21.0883C13.7855 21.0963 13.7891 21.1059 13.7972 21.1095L14.4302 21.398C14.4383 21.4017 14.4478 21.3981 14.4515 21.3901L14.7396 20.7578C14.7433 20.7498 14.7397 20.7402 14.7316 20.7366Z" fill="white"/>
<path d="M23.2604 20.6608L22.5623 20.5738C22.5554 20.573 22.5491 20.5779 22.5482 20.5848L22.4615 21.2811C22.4607 21.288 22.4656 21.2943 22.4725 21.2952L23.1705 21.3821C23.1774 21.383 23.1837 21.3781 23.1846 21.3712L23.2713 20.6748C23.2722 20.6679 23.2673 20.6616 23.2604 20.6608Z" fill="white"/>
<path d="M15.6872 20.593L15.0059 20.7291C14.9967 20.7309 14.9907 20.7399 14.9926 20.749L15.1285 21.4295C15.1304 21.4387 15.1393 21.4446 15.1485 21.4428L15.8298 21.3066C15.839 21.3048 15.8449 21.2959 15.8431 21.2867L15.7071 20.6063C15.7053 20.5971 15.6964 20.5911 15.6872 20.593Z" fill="#3088C8"/>
<path d="M22.1635 20.7238L21.68 20.6636C21.6734 20.6628 21.6673 20.6675 21.6665 20.6742L21.6062 21.1577C21.6054 21.1643 21.6101 21.1704 21.6168 21.1712L22.1003 21.2314C22.107 21.2323 22.113 21.2276 22.1139 21.2209L22.1741 20.7374C22.1749 20.7307 22.1702 20.7247 22.1635 20.7238Z" fill="white"/>
<path d="M16.643 20.7035L16.172 20.7976C16.1633 20.7994 16.1577 20.8078 16.1594 20.8165L16.2533 21.2866C16.2551 21.2953 16.2635 21.301 16.2722 21.2993L16.7432 21.2051C16.7519 21.2034 16.7575 21.1949 16.7558 21.1862L16.6619 20.7161C16.6601 20.7074 16.6517 20.7018 16.643 20.7035Z" fill="#71BA44"/>
<path d="M18.1328 21.5718L17.7765 21.2407C17.7716 21.2361 17.7639 21.2364 17.7593 21.2413L17.4276 21.5982C17.4231 21.6032 17.4234 21.6109 17.4283 21.6154L17.7845 21.9465C17.7895 21.9511 17.7972 21.9508 17.8017 21.9459L18.1334 21.589C18.138 21.584 18.1377 21.5763 18.1328 21.5718Z" fill="white"/>
<path d="M20.8747 21.3342L20.3937 21.2751C20.3861 21.2742 20.3791 21.2796 20.3782 21.2872L20.3193 21.7665C20.3184 21.7741 20.3238 21.7811 20.3314 21.782L20.8124 21.8411C20.8201 21.842 20.827 21.8366 20.8279 21.829L20.8868 21.3497C20.8877 21.3421 20.8823 21.3351 20.8747 21.3342Z" fill="white"/>
<path d="M19.5351 21.8257L19.1801 21.4958C19.1745 21.4906 19.1657 21.4909 19.1605 21.4965L18.8306 21.8515C18.8254 21.8571 18.8257 21.8659 18.8313 21.8711L19.1863 22.201C19.1919 22.2063 19.2007 22.2059 19.2059 22.2003L19.5358 21.8453C19.541 21.8397 19.5407 21.8309 19.5351 21.8257Z" fill="#1E3871"/>
<path d="M17.0069 21.5092L16.3215 21.6474C16.3133 21.649 16.308 21.6571 16.3096 21.6653L16.4477 22.3498C16.4493 22.358 16.4573 22.3633 16.4656 22.3617L17.1509 22.2235C17.1591 22.2218 17.1645 22.2138 17.1628 22.2056L17.0248 21.5211C17.0231 21.5129 17.0151 21.5075 17.0069 21.5092Z" fill="#1E3871"/>
<path d="M21.9736 21.6199L21.2729 21.5326C21.2667 21.5319 21.2611 21.5363 21.2603 21.5425L21.1733 22.2414C21.1725 22.2476 21.1769 22.2532 21.1831 22.254L21.8837 22.3413C21.8899 22.342 21.8956 22.3376 21.8963 22.3315L21.9834 21.6325C21.9842 21.6263 21.9798 21.6207 21.9736 21.6199Z" fill="#71BA44"/>
<path d="M24.7222 21.708L23.8231 21.5976C23.8146 21.5966 23.8068 21.6027 23.8057 21.6112L23.6955 22.5086C23.6945 22.5171 23.7006 22.5249 23.7091 22.526L24.6082 22.6364C24.6168 22.6374 24.6246 22.6313 24.6256 22.6228L24.7358 21.7254C24.7369 21.7169 24.7308 21.7091 24.7222 21.708Z" fill="#1E3871"/>
<path d="M23.2153 21.7727L22.5197 21.6872C22.512 21.6863 22.5051 21.6917 22.5042 21.6993L22.4189 22.3941C22.4179 22.4017 22.4233 22.4087 22.431 22.4096L23.1266 22.495C23.1342 22.496 23.1412 22.4905 23.1421 22.4829L23.2274 21.7881C23.2283 21.7805 23.2229 21.7736 23.2153 21.7727Z" fill="#71BA44"/>
<path d="M14.6299 21.7703L13.7374 21.9486C13.7303 21.95 13.7258 21.9569 13.7272 21.9639L13.905 22.8539C13.9064 22.861 13.9133 22.8656 13.9203 22.8641L14.8129 22.6858C14.8199 22.6844 14.8245 22.6775 14.8231 22.6705L14.6452 21.7805C14.6438 21.7734 14.637 21.7689 14.6299 21.7703Z" fill="#71BA44"/>
<path d="M15.9369 21.8192L15.2514 21.9562C15.2436 21.9577 15.2386 21.9653 15.2401 21.973L15.3766 22.6561C15.3781 22.6638 15.3857 22.6689 15.3935 22.6673L16.079 22.5303C16.0868 22.5288 16.0918 22.5212 16.0903 22.5135L15.9538 21.8304C15.9522 21.8227 15.9447 21.8176 15.9369 21.8192Z" fill="#D0DA33"/>
<path d="M20.4611 22.4162L19.947 21.9386C19.9418 21.9337 19.9335 21.934 19.9286 21.9392L19.4515 22.4526C19.4466 22.4579 19.4469 22.4662 19.4522 22.4711L19.9663 22.9487C19.9715 22.9536 19.9798 22.9533 19.9847 22.9481L20.4618 22.4347C20.4667 22.4294 20.4664 22.4211 20.4611 22.4162Z" fill="#D0DA33"/>
<path d="M18.8546 22.4425L18.3387 21.9631C18.3339 21.9587 18.3265 21.9589 18.3221 21.9637L17.8426 22.4796C17.8382 22.4844 17.8385 22.4918 17.8432 22.4962L18.3592 22.9757C18.3639 22.9801 18.3714 22.9798 18.3758 22.9751L18.8552 22.4591C18.8596 22.4543 18.8594 22.4469 18.8546 22.4425Z" fill="white"/>
<path d="M17.8373 23.0339L17.3237 22.5583C17.318 22.5531 17.3092 22.5534 17.304 22.559L16.829 23.072C16.8238 23.0776 16.8241 23.0864 16.8298 23.0916L17.3434 23.5672C17.349 23.5725 17.3578 23.5721 17.363 23.5665L17.838 23.0535C17.8433 23.0479 17.8429 23.0391 17.8373 23.0339Z" fill="#D0DA33"/>
<path d="M21.495 22.6965L20.7985 22.611C20.7911 22.6101 20.7844 22.6154 20.7835 22.6227L20.6982 23.3175C20.6973 23.3249 20.7025 23.3316 20.7099 23.3325L21.4064 23.418C21.4138 23.4189 21.4205 23.4137 21.4214 23.4063L21.5067 22.7115C21.5077 22.7042 21.5024 22.6974 21.495 22.6965Z" fill="white"/>
<path d="M19.7736 23.2912L19.2595 22.8136C19.2543 22.8087 19.246 22.809 19.2411 22.8142L18.7634 23.3283C18.7585 23.3336 18.7588 23.3418 18.7641 23.3467L19.2782 23.8244C19.2834 23.8293 19.2917 23.829 19.2966 23.8237L19.7743 23.3097C19.7792 23.3044 19.7789 23.2961 19.7736 23.2912Z" fill="#3088C8"/>
<path d="M22.9631 23.0222L22.0616 22.9099C22.054 22.909 22.0471 22.9144 22.0461 22.922L21.9342 23.8209C21.9332 23.8285 21.9386 23.8354 21.9462 23.8364L22.8477 23.9487C22.8553 23.9496 22.8623 23.9442 22.8632 23.9366L22.9752 23.0377C22.9761 23.0301 22.9707 23.0232 22.9631 23.0222Z" fill="#27B8BE"/>
<path d="M16.4288 23.0249L15.5431 23.2019C15.5344 23.2037 15.5288 23.2121 15.5305 23.2208L15.7073 24.1057C15.709 24.1144 15.7175 24.12 15.7262 24.1183L16.6119 23.9413C16.6206 23.9396 16.6263 23.9311 16.6245 23.9224L16.4477 23.0376C16.446 23.0289 16.4375 23.0232 16.4288 23.0249Z" fill="#27B8BE"/>
<path d="M24.7294 23.2752L23.601 23.1366C23.5927 23.1356 23.5851 23.1415 23.5841 23.1499L23.4457 24.2765C23.4447 24.2848 23.4507 24.2924 23.459 24.2934L24.5874 24.432C24.5957 24.433 24.6033 24.4271 24.6043 24.4188L24.7426 23.2921C24.7437 23.2838 24.7377 23.2762 24.7294 23.2752Z" fill="#71BA44"/>
<path d="M14.8929 23.3034L13.7767 23.5284C13.769 23.53 13.764 23.5375 13.7655 23.5453L13.9901 24.6589C13.9916 24.6666 13.9992 24.6716 14.0069 24.6701L15.1231 24.445C15.1308 24.4435 15.1358 24.4359 15.1343 24.4282L14.9097 23.3146C14.9082 23.3068 14.9006 23.3018 14.8929 23.3034Z" fill="#3088C8"/>
<path d="M21.0332 24.1208L20.366 23.503C20.3607 23.4981 20.3525 23.4984 20.3476 23.5037L19.7304 24.1702C19.7255 24.1755 19.7258 24.1838 19.7311 24.1887L20.3983 24.8065C20.4035 24.8114 20.4118 24.811 20.4167 24.8058L21.0339 24.1392C21.0388 24.1339 21.0385 24.1257 21.0332 24.1208Z" fill="#27B8BE"/>
<path d="M18.8358 24.1591L18.1697 23.5401C18.1644 23.5352 18.1562 23.5355 18.1513 23.5408L17.5323 24.2069C17.5274 24.2122 17.5277 24.2204 17.533 24.2253L18.1991 24.8443C18.2044 24.8492 18.2126 24.8489 18.2175 24.8436L18.8365 24.1775C18.8414 24.1722 18.8411 24.164 18.8358 24.1591Z" fill="#71BA44"/>
<path d="M20.1187 25.4037L19.2846 24.6286C19.279 24.6234 19.2702 24.6237 19.265 24.6293L18.4905 25.4627C18.4853 25.4684 18.4856 25.4772 18.4912 25.4824L19.3253 26.2574C19.3309 26.2627 19.3397 26.2623 19.3449 26.2567L20.1194 25.4233C20.1246 25.4177 20.1243 25.4089 20.1187 25.4037Z" fill="#D0DA33"/>
<path d="M1.30583 27.2924L0.99404 27.2929C0.984927 27.293 0.977552 27.3004 0.977568 27.3095L0.978112 27.6213C0.978128 27.6304 0.985529 27.6377 0.994642 27.6377L1.30643 27.6372C1.31554 27.6372 1.32292 27.6298 1.3229 27.6207L1.32236 27.3089C1.32234 27.2998 1.31494 27.2924 1.30583 27.2924Z" fill="white"/>
<path d="M1.89632 27.293H1.57933C1.57165 27.293 1.56543 27.2992 1.56543 27.3069V27.6239C1.56543 27.6315 1.57165 27.6378 1.57933 27.6378H1.89632C1.904 27.6378 1.91022 27.6315 1.91022 27.6239V27.3069C1.91022 27.2992 1.904 27.293 1.89632 27.293Z" fill="white"/>
<path d="M10.9006 29.9623H12.6176C12.6339 29.9623 12.642 29.9542 12.642 29.9379V28.2496C12.642 28.2403 12.6466 28.2357 12.6559 28.2357H12.9629C12.9659 28.2357 12.9687 28.2369 12.9708 28.239C12.973 28.2411 12.9742 28.244 12.9742 28.247V29.9401C12.9742 29.9529 12.9805 29.9594 12.9933 29.9597C13.4188 29.967 13.9542 30.0469 14.1262 29.6965C14.1685 29.6105 14.19 29.4588 14.1909 29.2414C14.1926 28.9085 14.1928 28.5791 14.1913 28.2531C14.1913 28.2415 14.1971 28.2357 14.2087 28.2357H14.5131C14.5215 28.2357 14.5257 28.2399 14.5257 28.2483C14.5272 28.6333 14.527 29.0237 14.5253 29.4195C14.5227 30.0426 15.5666 30.2593 15.7807 29.6318C15.8082 29.5513 15.8221 29.4009 15.8224 29.1806C15.8229 28.8685 15.8232 28.5584 15.8232 28.25C15.8232 28.2462 15.8247 28.2426 15.8274 28.2399C15.8301 28.2372 15.8338 28.2357 15.8376 28.2357H16.1424C16.1456 28.2357 16.1487 28.2369 16.151 28.2391C16.1533 28.2413 16.1546 28.2443 16.1546 28.2474C16.1585 28.6934 16.1789 29.1606 16.1328 29.6088C16.1314 29.6233 16.1344 29.6366 16.142 29.6487C16.3882 30.0517 16.9848 29.9675 17.3826 29.9605C17.3962 29.9602 17.403 29.9534 17.403 29.9401V27.303C17.403 27.2963 17.4063 27.293 17.413 27.293H17.7287C17.7353 27.293 17.7387 27.2963 17.7387 27.303V30.2762C17.7387 30.2898 17.7319 30.2968 17.7183 30.2971C17.4699 30.3 17.2237 30.3 16.9796 30.2971C16.5936 30.2927 16.251 30.2658 16.0443 29.9236C16.0434 29.9222 16.0421 29.921 16.0407 29.9202C16.0392 29.9194 16.0375 29.919 16.0359 29.9191C16.0342 29.9191 16.0326 29.9196 16.0312 29.9205C16.0297 29.9214 16.0286 29.9226 16.0278 29.924C15.8302 30.2727 15.4428 30.3687 15.0685 30.3335C14.7851 30.3069 14.5522 30.1707 14.3698 29.9249C14.3655 29.9188 14.3611 29.9188 14.3568 29.9249C14.1297 30.2423 13.8704 30.291 13.4944 30.2905C11.8078 30.2897 10.1207 30.2836 8.43414 30.2984C8.43105 30.2984 8.42798 30.299 8.42513 30.3002C8.42228 30.3014 8.4197 30.3032 8.41755 30.3054C8.4154 30.3076 8.41373 30.3103 8.41262 30.3132C8.41152 30.3161 8.41101 30.3192 8.41113 30.3222C8.44934 31.2606 7.50443 31.3662 6.85089 31.0735C6.84452 31.0703 6.84235 31.0654 6.84438 31.0587L6.94165 30.7613C6.94207 30.7599 6.94277 30.7587 6.9437 30.7577C6.94464 30.7567 6.94579 30.7559 6.94707 30.7553C6.94835 30.7548 6.94973 30.7545 6.95112 30.7546C6.95251 30.7546 6.95387 30.755 6.95511 30.7556C7.35939 30.9597 8.13365 31.0057 8.07763 30.3183C8.07718 30.3121 8.07429 30.3062 8.06958 30.3021C8.06486 30.298 8.05871 30.2958 8.05244 30.2962C7.27515 30.3387 6.43098 30.0413 6.49351 29.0925C6.53563 28.4585 7.09971 28.0876 7.70244 28.0347C7.83764 28.0225 8.06822 28.0216 8.39419 28.032C8.40722 28.0326 8.41373 28.0394 8.41373 28.0525V29.9405C8.41373 29.955 8.42097 29.9623 8.43545 29.9623H9.55232C9.56882 29.9623 9.57389 29.9547 9.56752 29.9397L8.99692 28.587C8.99171 28.5751 8.99388 28.5646 9.00344 28.5553C9.32014 28.2534 9.66956 28.0706 10.0517 28.0069C10.5359 27.9257 11.0956 28.2353 11.4569 28.5557C11.4624 28.5604 11.4637 28.566 11.4608 28.5727L10.8872 29.9419C10.8814 29.9555 10.8859 29.9623 10.9006 29.9623ZM8.08414 29.9362L8.08154 28.386C8.08142 28.3792 8.07867 28.3728 8.07388 28.3681C8.06909 28.3634 8.06264 28.3608 8.05592 28.3608L7.70244 28.3612C7.58717 28.3614 7.47306 28.382 7.36663 28.4219C7.2602 28.4618 7.16353 28.5202 7.08216 28.5937C7.00078 28.6672 6.93629 28.7544 6.89236 28.8504C6.84843 28.9463 6.82593 29.0491 6.82614 29.1528V29.1745C6.82657 29.384 6.91939 29.5847 7.08421 29.7325C7.24903 29.8803 7.47235 29.9631 7.70505 29.9627L8.05852 29.9623C8.06192 29.9623 8.06529 29.9616 8.06843 29.9603C8.07156 29.959 8.07441 29.957 8.07679 29.9546C8.07918 29.9522 8.08106 29.9493 8.08232 29.9461C8.08358 29.943 8.0842 29.9396 8.08414 29.9362ZM11.0383 28.6678C10.5693 28.2704 9.89494 28.2583 9.42118 28.6678C9.41018 28.6773 9.40743 28.6889 9.41293 28.7025L9.92012 29.9449C9.92476 29.9565 9.9333 29.9623 9.94574 29.9623H10.5072C10.5217 29.9623 10.5317 29.9555 10.5372 29.9419L11.0452 28.6964C11.0499 28.6851 11.0476 28.6756 11.0383 28.6678Z" fill="white"/>
<path d="M19.0354 27.293H18.7306C18.7224 27.293 18.7158 27.2996 18.7158 27.3077V30.284C18.7158 30.2922 18.7224 30.2988 18.7306 30.2988H19.0354C19.0436 30.2988 19.0502 30.2922 19.0502 30.284V27.3077C19.0502 27.2996 19.0436 27.293 19.0354 27.293Z" fill="white"/>
<path d="M22.0158 27.2924L21.6997 27.2929C21.6929 27.293 21.6875 27.2984 21.6875 27.3051L21.6881 27.6256C21.6881 27.6323 21.6935 27.6377 21.7003 27.6377L22.0164 27.6372C22.0231 27.6372 22.0285 27.6317 22.0285 27.625L22.028 27.3045C22.028 27.2978 22.0225 27.2924 22.0158 27.2924Z" fill="white"/>
<path d="M22.6041 27.2924L22.2871 27.2929C22.2806 27.293 22.2754 27.2982 22.2754 27.3047L22.276 27.626C22.276 27.6325 22.2812 27.6377 22.2877 27.6377L22.6047 27.6372C22.6112 27.6372 22.6164 27.6319 22.6164 27.6254L22.6159 27.3041C22.6158 27.2976 22.6106 27.2924 22.6041 27.2924Z" fill="white"/>
<path d="M27.2485 29.9623H28.4643C28.4657 29.9622 28.467 29.9619 28.4681 29.9612C28.4693 29.9606 28.4702 29.9596 28.471 29.9585C28.4717 29.9574 28.4721 29.9562 28.4723 29.9548C28.4724 29.9535 28.4722 29.9522 28.4717 29.951L27.8959 28.5861C27.8901 28.5722 27.8927 28.5602 27.9037 28.5501C28.1602 28.3124 28.4447 28.1461 28.757 28.0512C29.3311 27.8766 29.9334 28.1767 30.3563 28.5553C30.3618 28.5602 30.3631 28.5662 30.3602 28.5731L29.7827 29.9518C29.7822 29.953 29.782 29.9542 29.7821 29.9555C29.7822 29.9567 29.7826 29.9579 29.7833 29.959C29.784 29.96 29.7849 29.9609 29.786 29.9614C29.7872 29.962 29.7884 29.9623 29.7896 29.9623H31.181C31.1972 29.9623 31.2053 29.9542 31.2053 29.9379V27.3017C31.2053 27.2962 31.2082 27.2934 31.214 27.2934L31.5271 27.293C31.5301 27.293 31.5329 27.2941 31.535 27.2961C31.5372 27.2982 31.5383 27.3009 31.5383 27.3038V30.2762C31.5383 30.291 31.5308 30.2984 31.5158 30.2984H27.248C27.233 30.2984 27.2253 30.3059 27.225 30.3209C27.2185 30.918 27.0361 31.3462 26.337 31.1864C26.3213 31.1829 26.3156 31.1735 26.3196 31.1582L26.3943 30.8842C26.3989 30.8674 26.4096 30.861 26.4264 30.8651C26.7078 30.9289 26.8841 30.8238 26.8859 30.5263C26.8908 29.6946 26.8921 28.8659 26.8898 28.0403C26.8898 28.0373 26.891 28.0343 26.8932 28.0322C26.8954 28.03 26.8984 28.0287 26.9015 28.0286L27.2146 28.0268C27.2178 28.0268 27.2209 28.0281 27.2232 28.0304C27.2255 28.0327 27.2267 28.0358 27.2267 28.039V29.9405C27.2267 29.955 27.234 29.9623 27.2485 29.9623ZM29.9338 28.666C29.464 28.2678 28.7909 28.2618 28.321 28.6665C28.3097 28.6763 28.3069 28.6883 28.3124 28.7025L28.8195 29.9449C28.8242 29.9565 28.8329 29.9623 28.8456 29.9623H29.4066C29.4214 29.9623 29.4315 29.9555 29.437 29.9419L29.9425 28.7021C29.9483 28.6879 29.9454 28.6759 29.9338 28.666Z" fill="white"/>
<path d="M32.839 27.293H32.5307C32.524 27.293 32.5186 27.2984 32.5186 27.3051V30.2866C32.5186 30.2934 32.524 30.2988 32.5307 30.2988H32.839C32.8457 30.2988 32.8512 30.2934 32.8512 30.2866V27.3051C32.8512 27.2984 32.8457 27.293 32.839 27.293Z" fill="white"/>
<path d="M35.8174 27.293H35.503C35.4949 27.293 35.4883 27.2996 35.4883 27.3077V27.623C35.4883 27.6311 35.4949 27.6378 35.503 27.6378H35.8174C35.8256 27.6378 35.8322 27.6311 35.8322 27.623V27.3077C35.8322 27.2996 35.8256 27.293 35.8174 27.293Z" fill="white"/>
<path d="M36.4044 27.293H36.0908C36.0822 27.293 36.0752 27.3 36.0752 27.3086V27.6221C36.0752 27.6308 36.0822 27.6378 36.0908 27.6378H36.4044C36.413 27.6378 36.42 27.6308 36.42 27.6221V27.3086C36.42 27.3 36.413 27.293 36.4044 27.293Z" fill="white"/>
<path d="M44.5646 29.9623H45.5538C45.5726 29.9623 45.5791 29.9534 45.5733 29.9358C45.3736 29.3359 45.505 28.85 45.9676 28.478C46.0924 28.3779 46.2425 28.3101 46.4179 28.2748C47.4006 28.0781 48.1818 29.0082 47.8027 29.9366C47.7958 29.9537 47.8015 29.9623 47.8201 29.9623H48.9283C48.9425 29.9623 48.9495 29.955 48.9495 29.9405V27.3034C48.9495 27.2964 48.953 27.293 48.96 27.293H49.2748C49.2806 27.293 49.2835 27.296 49.2835 27.3021V30.2784C49.2835 30.2837 49.2814 30.2888 49.2776 30.2925C49.2739 30.2963 49.2688 30.2984 49.2635 30.2984H47.5938C47.5808 30.2984 47.5695 30.303 47.56 30.3123C47.0732 30.7886 46.3076 30.8095 45.8217 30.3153C45.8108 30.3045 45.7963 30.2984 45.7813 30.2984H44.337C44.3254 30.2984 44.3156 30.3024 44.3075 30.3105C43.819 30.7956 43.0538 30.803 42.5644 30.3136C42.5596 30.3086 42.5539 30.3047 42.5475 30.302C42.5412 30.2993 42.5344 30.2979 42.5275 30.2979C40.3256 30.2985 38.124 30.2985 35.9227 30.2979C35.5132 30.2979 35.0776 30.2011 34.7867 29.9041C34.4054 29.5146 34.4354 28.8441 34.7771 28.4606C35.2062 27.9795 35.818 28.026 36.3986 28.0277C36.414 28.028 36.4216 28.0358 36.4216 28.0512V29.9401C36.4216 29.9549 36.429 29.9623 36.4438 29.9623H39.5048C39.5189 29.9623 39.526 29.9552 39.526 29.941C39.5269 29.8287 39.5259 29.655 39.523 29.4199C39.516 28.871 39.1791 28.8332 38.7053 28.8337C38.2216 28.834 37.738 28.8341 37.2545 28.8341C37.2389 28.8341 37.2261 28.828 37.2163 28.8159C37.1465 28.7284 37.1027 28.6291 37.0847 28.518C37.0824 28.5029 37.0849 28.4886 37.0921 28.475L37.7213 27.3008C37.7242 27.2956 37.7287 27.293 37.7348 27.293H38.0783C38.0846 27.293 38.0864 27.2959 38.0835 27.3017L37.4677 28.478C37.4665 28.4805 37.4658 28.4832 37.4659 28.486C37.466 28.4887 37.4668 28.4914 37.4683 28.4938C37.4697 28.4961 37.4717 28.4981 37.4742 28.4994C37.4766 28.5008 37.4793 28.5015 37.482 28.5015C37.8836 28.5012 38.286 28.5013 38.6892 28.5019C39.0109 28.5025 39.2264 28.5239 39.3358 28.5662C39.9268 28.7941 39.8517 29.4069 39.8578 29.9436C39.8578 29.956 39.864 29.9623 39.8765 29.9623H40.9061C40.9208 29.9623 40.9282 29.9549 40.9282 29.9401V27.303C40.9282 27.2963 40.9314 27.293 40.9378 27.293H41.2539C41.2605 27.293 41.2639 27.2964 41.2639 27.3034V29.9514C41.2639 29.9543 41.265 29.957 41.2671 29.9591C41.2691 29.9611 41.2719 29.9623 41.2747 29.9623H42.3065C42.3244 29.9623 42.3302 29.9537 42.3239 29.9366C42.1785 29.5577 42.1949 29.2052 42.3729 28.8793C42.8814 27.9491 44.2363 28.0789 44.5854 29.0721C44.6838 29.3517 44.6717 29.6406 44.5489 29.9388C44.5426 29.9544 44.5478 29.9623 44.5646 29.9623ZM36.0838 29.9488L36.092 28.3764C36.0921 28.3743 36.0917 28.3722 36.091 28.3702C36.0902 28.3683 36.0891 28.3664 36.0876 28.3649C36.0862 28.3634 36.0844 28.3622 36.0825 28.3613C36.0806 28.3604 36.0785 28.36 36.0764 28.3599L35.7199 28.3582C35.6058 28.3575 35.4927 28.3774 35.3871 28.4167C35.2815 28.4559 35.1854 28.5138 35.1044 28.5869C35.0233 28.6601 34.9589 28.7471 34.9147 28.843C34.8706 28.9389 34.8476 29.0418 34.8471 29.1459V29.1667C34.846 29.3767 34.9365 29.5786 35.0985 29.7279C35.2606 29.8773 35.4809 29.9619 35.7112 29.9631L36.0677 29.9649C36.072 29.9649 36.0761 29.9632 36.0791 29.9602C36.0821 29.9571 36.0838 29.9531 36.0838 29.9488ZM44.3175 29.4607C44.3175 29.2273 44.2247 29.0034 44.0597 28.8383C43.8946 28.6732 43.6707 28.5805 43.4373 28.5805C43.2038 28.5805 42.9799 28.6732 42.8149 28.8383C42.6498 29.0034 42.5571 29.2273 42.5571 29.4607C42.5571 29.6942 42.6498 29.918 42.8149 30.0831C42.9799 30.2482 43.2038 30.3409 43.4373 30.3409C43.6707 30.3409 43.8946 30.2482 44.0597 30.0831C44.2247 29.918 44.3175 29.6942 44.3175 29.4607ZM47.5704 29.4598C47.5704 29.2264 47.4777 29.0025 47.3126 28.8374C47.1475 28.6724 46.9236 28.5796 46.6902 28.5796C46.4567 28.5796 46.2328 28.6724 46.0678 28.8374C45.9027 29.0025 45.81 29.2264 45.81 29.4598C45.81 29.6933 45.9027 29.9172 46.0678 30.0822C46.2328 30.2473 46.4567 30.3401 46.6902 30.3401C46.9236 30.3401 47.1475 30.2473 47.3126 30.0822C47.4777 29.9172 47.5704 29.6933 47.5704 29.4598Z" fill="white"/>
<path d="M50.5801 27.293H50.277C50.2691 27.293 50.2627 27.2994 50.2627 27.3073V30.2836C50.2627 30.2915 50.2691 30.2979 50.277 30.2979H50.5801C50.588 30.2979 50.5945 30.2915 50.5945 30.2836V27.3073C50.5945 27.2994 50.588 27.293 50.5801 27.293Z" fill="white"/>
<path d="M0 29.276V29.0728C0.0466088 28.7069 0.220017 28.432 0.520223 28.2482C0.926675 27.9994 1.35136 28.0198 1.89026 28.0315C1.90416 28.0318 1.9111 28.0389 1.9111 28.0528L1.91067 29.9413C1.91067 29.9558 1.91791 29.963 1.93238 29.963H3.22426C3.23873 29.963 3.24597 29.9558 3.24597 29.9413V28.041C3.24597 28.0379 3.24716 28.035 3.24927 28.0328C3.25139 28.0306 3.25426 28.0293 3.25726 28.0293L3.56644 28.0276C3.5757 28.0276 3.58034 28.0322 3.58034 28.0415V30.2883C3.58034 30.291 3.57924 30.2937 3.57728 30.2956C3.57533 30.2976 3.57268 30.2987 3.56991 30.2987C2.86586 30.2995 2.16079 30.2994 1.45471 30.2982C0.745596 30.2969 0.108561 30.0607 0 29.276ZM1.57891 29.9287L1.58933 28.3976C1.58939 28.3927 1.58848 28.3878 1.58665 28.3832C1.58483 28.3787 1.58213 28.3745 1.5787 28.371C1.57527 28.3675 1.57119 28.3647 1.56668 28.3628C1.56217 28.3609 1.55732 28.3598 1.55242 28.3598L1.21241 28.3576C1.09818 28.3568 0.984916 28.3765 0.879097 28.4156C0.773277 28.4547 0.676971 28.5124 0.595678 28.5855C0.514384 28.6586 0.449696 28.7455 0.405307 28.8415C0.360918 28.9374 0.337698 29.0403 0.336973 29.1445V29.1644C0.335497 29.3747 0.425709 29.577 0.587766 29.7269C0.749823 29.8767 0.97045 29.9618 1.20112 29.9634L1.54113 29.9656C1.54603 29.9657 1.5509 29.9648 1.55545 29.9629C1.56001 29.9611 1.56416 29.9584 1.56766 29.955C1.57117 29.9516 1.57397 29.9475 1.5759 29.943C1.57783 29.9384 1.57885 29.9336 1.57891 29.9287Z" fill="white"/>
<path d="M25.5543 29.9419V28.0417C25.5543 28.0386 25.5555 28.0356 25.5577 28.0334C25.5599 28.0312 25.5629 28.0299 25.566 28.0299L25.8748 28.0286C25.8837 28.0286 25.8882 28.0331 25.8882 28.0421L25.8887 30.2772C25.8887 30.2905 25.882 30.2971 25.8687 30.2971C23.872 30.3035 22.5734 30.3035 21.9727 30.2971C21.7686 30.2951 21.5526 30.2443 21.3248 30.1447C20.7776 29.905 20.557 29.2558 20.8059 28.7247C21.1546 27.9804 21.9223 28.0365 22.6032 28.0273C22.6072 28.0273 22.6111 28.0289 22.6139 28.0317C22.6168 28.0344 22.6184 28.0382 22.6184 28.0421L22.618 29.9445C22.618 29.9573 22.6243 29.9636 22.6371 29.9636H23.9263C23.9443 29.9636 23.9532 29.9547 23.9532 29.9367V28.0438C23.9532 28.04 23.9548 28.0364 23.9576 28.0337C23.9603 28.031 23.9641 28.0295 23.968 28.0295H24.2733C24.2765 28.0295 24.2796 28.0308 24.2819 28.0331C24.2842 28.0354 24.2854 28.0384 24.2854 28.0417V29.9532C24.2854 29.9602 24.2889 29.9636 24.2959 29.9636H25.533C25.5472 29.9636 25.5543 29.9564 25.5543 29.9419ZM22.2858 29.9419L22.291 28.3847C22.291 28.3816 22.2904 28.3786 22.2892 28.3758C22.288 28.3729 22.2863 28.3703 22.2841 28.3681C22.2819 28.366 22.2793 28.3642 22.2765 28.3631C22.2736 28.3619 22.2706 28.3613 22.2675 28.3613L21.9136 28.36C21.6836 28.3592 21.4628 28.4419 21.2997 28.5899C21.1366 28.7378 21.0446 28.939 21.0438 29.149V29.169C21.0435 29.273 21.0655 29.3761 21.1088 29.4723C21.152 29.5686 21.2156 29.6562 21.2959 29.73C21.3762 29.8038 21.4716 29.8625 21.5767 29.9027C21.6818 29.9428 21.7945 29.9637 21.9084 29.9641L22.2623 29.9654C22.2654 29.9654 22.2684 29.9648 22.2713 29.9636C22.2741 29.9624 22.2767 29.9607 22.2789 29.9585C22.2811 29.9563 22.2828 29.9537 22.284 29.9509C22.2851 29.9481 22.2858 29.945 22.2858 29.9419Z" fill="white"/>
<path d="M5.62003 29.9446C5.62755 29.3986 5.62784 29.0523 5.6209 28.9055C5.59918 28.46 5.26569 28.3232 4.85055 28.3662C4.81205 28.3702 4.79279 28.3528 4.79279 28.314V28.0839C4.79279 28.0463 4.81161 28.0274 4.84925 28.0274C5.05826 28.0266 5.18984 28.0314 5.24397 28.0418C5.70471 28.1308 5.9557 28.4964 5.9557 28.9541C5.95541 29.3959 5.9557 29.8378 5.95657 30.2799C5.95657 30.2932 5.95005 30.2998 5.93703 30.2998H4.06023C4.05357 30.2998 4.05024 30.2964 4.05024 30.2894L4.0498 29.9746C4.0498 29.9717 4.0509 29.969 4.05286 29.9669C4.05481 29.9649 4.05746 29.9637 4.06023 29.9637H5.60092C5.61366 29.9637 5.62003 29.9574 5.62003 29.9446Z" fill="white"/>
<path d="M3.04519 30.6959L2.72646 30.6953C2.71951 30.6953 2.71386 30.701 2.71385 30.7079L2.71329 31.0249C2.71328 31.0319 2.71891 31.0375 2.72586 31.0375L3.0446 31.0381C3.05155 31.0381 3.0572 31.0325 3.05721 31.0255L3.05777 30.7085C3.05778 30.7016 3.05215 30.6959 3.04519 30.6959Z" fill="white"/>
<path d="M3.63081 30.6953H3.31555C3.30739 30.6953 3.30078 30.7019 3.30078 30.7101V31.0227C3.30078 31.0309 3.30739 31.0375 3.31555 31.0375H3.63081C3.63896 31.0375 3.64557 31.0309 3.64557 31.0227V30.7101C3.64557 30.7019 3.63896 30.6953 3.63081 30.6953Z" fill="white"/>
<path d="M24.066 30.6959L23.7508 30.6953C23.7433 30.6953 23.7373 30.7013 23.7373 30.7088L23.7367 31.0249C23.7367 31.0323 23.7427 31.0384 23.7502 31.0384L24.0654 31.0389C24.0729 31.039 24.0789 31.0329 24.0789 31.0255L24.0795 30.7094C24.0795 30.7019 24.0735 30.6959 24.066 30.6959Z" fill="white"/>
<path d="M24.6524 30.6953H24.3363C24.3291 30.6953 24.3232 30.7011 24.3232 30.7083V31.0253C24.3232 31.0325 24.3291 31.0384 24.3363 31.0384H24.6524C24.6596 31.0384 24.6654 31.0325 24.6654 31.0253V30.7083C24.6654 30.7011 24.6596 30.6953 24.6524 30.6953Z" fill="white"/>
<path d="M25.8798 30.6895H25.562C25.5552 30.6895 25.5498 30.6949 25.5498 30.7016V31.0203C25.5498 31.0271 25.5552 31.0325 25.562 31.0325H25.8798C25.8865 31.0325 25.892 31.0271 25.892 31.0203V30.7016C25.892 30.6949 25.8865 30.6895 25.8798 30.6895Z" fill="white"/>
<path d="M8.3212 33.9144H7.74843C7.73917 33.9144 7.73454 33.9097 7.73454 33.9005V33.5683C7.73454 33.5587 7.73931 33.5539 7.74887 33.5539H8.72809C8.74343 33.5539 8.7511 33.5616 8.7511 33.5769V34.5327C8.7511 34.5475 8.74546 34.5595 8.73416 34.5688C7.86655 35.2831 6.41183 34.8784 6.51605 33.5982C6.60637 32.4944 7.85091 32.1357 8.65904 32.7684C8.6657 32.7733 8.66642 32.779 8.66121 32.7853L8.40935 33.0871C8.40298 33.0946 8.39618 33.0952 8.38894 33.0889C8.15532 32.8865 7.84266 32.7875 7.53913 32.8722C6.94943 33.0367 6.78137 33.7897 7.12964 34.2505C7.40972 34.6213 7.96599 34.6157 8.33162 34.376C8.34233 34.3687 8.34769 34.3587 8.34769 34.346V33.9408C8.34769 33.9232 8.33886 33.9144 8.3212 33.9144Z" fill="white"/>
<path d="M14.3921 33.5146C14.4151 33.6759 14.4056 33.8401 14.3643 33.998C14.323 34.1558 14.2506 34.3042 14.1513 34.4347C14.052 34.5652 13.9277 34.6751 13.7855 34.7583C13.6434 34.8415 13.4861 34.8963 13.3227 34.9195C12.9927 34.9665 12.6579 34.8822 12.3918 34.6851C12.1257 34.4881 11.9502 34.1944 11.9038 33.8688C11.8809 33.7075 11.8903 33.5433 11.9316 33.3854C11.973 33.2276 12.0454 33.0792 12.1447 32.9487C12.244 32.8183 12.3682 32.7083 12.5104 32.6251C12.6526 32.5419 12.8098 32.4871 12.9732 32.4639C13.3032 32.4169 13.6381 32.5012 13.9042 32.6983C14.1703 32.8953 14.3458 33.189 14.3921 33.5146ZM13.1972 34.5457C13.3041 34.5396 13.4087 34.5114 13.505 34.4628C13.6013 34.4142 13.6875 34.3461 13.7585 34.2624C13.8295 34.1787 13.8841 34.0811 13.919 33.9752C13.9539 33.8692 13.9686 33.7569 13.9621 33.6448C13.9491 33.4183 13.8508 33.206 13.6889 33.0546C13.5269 32.9033 13.3147 32.8252 13.0987 32.8377C12.9918 32.8438 12.8872 32.872 12.7909 32.9206C12.6946 32.9693 12.6085 33.0373 12.5375 33.121C12.4664 33.2047 12.4119 33.3023 12.3769 33.4082C12.342 33.5142 12.3274 33.6265 12.3338 33.7387C12.3469 33.9652 12.4452 34.1774 12.6071 34.3288C12.769 34.4802 12.9813 34.5582 13.1972 34.5457Z" fill="white"/>
<path d="M21.3112 33.5082C21.3593 33.8336 21.2744 34.165 21.0753 34.4295C20.8762 34.694 20.5792 34.8699 20.2496 34.9186C19.92 34.9673 19.5848 34.8847 19.3178 34.689C19.0507 34.4934 18.8737 34.2006 18.8256 33.8752C18.7776 33.5498 18.8624 33.2184 19.0615 32.9539C19.2606 32.6894 19.5576 32.5135 19.8873 32.4648C20.2169 32.4162 20.5521 32.4987 20.8191 32.6944C21.0861 32.8901 21.2632 33.1828 21.3112 33.5082ZM20.1177 34.5458C20.2245 34.5396 20.3291 34.5114 20.4253 34.4628C20.5216 34.4142 20.6076 34.3461 20.6786 34.2624C20.7496 34.1788 20.8041 34.0812 20.8391 33.9752C20.874 33.8692 20.8886 33.757 20.8822 33.6448C20.8691 33.4183 20.7708 33.206 20.609 33.0546C20.4472 32.9033 20.235 32.8252 20.0192 32.8377C19.9123 32.8438 19.8078 32.872 19.7115 32.9206C19.6153 32.9693 19.5292 33.0373 19.4582 33.121C19.3872 33.2047 19.3327 33.3023 19.2978 33.4082C19.2629 33.5142 19.2482 33.6265 19.2547 33.7386C19.2678 33.9651 19.366 34.1774 19.5279 34.3288C19.6897 34.4802 19.9019 34.5582 20.1177 34.5458Z" fill="white"/>
<path d="M25.2178 34.2447C25.4745 34.4778 25.8223 34.609 26.164 34.5234C26.3564 34.4752 26.4715 34.2295 26.3299 34.0736C26.1827 33.9116 25.7298 33.8486 25.5174 33.7818C25.1905 33.6788 25.015 33.3983 25.0567 33.0648C25.0984 32.7283 25.3889 32.5185 25.7189 32.4795C26.0967 32.4352 26.433 32.5282 26.7277 32.7587C26.7335 32.763 26.7342 32.7681 26.7299 32.7739L26.5205 33.0679C26.5153 33.0754 26.5091 33.0764 26.5019 33.0709C26.2379 32.8837 25.7971 32.7096 25.5574 32.9367C25.4306 33.057 25.4449 33.2476 25.5943 33.3436C26.0372 33.6272 26.8567 33.4795 26.808 34.2698C26.7728 34.8417 26.1293 34.9959 25.6529 34.8886C25.3941 34.8305 25.1653 34.7158 24.9664 34.5447C24.9609 34.5401 24.9605 34.5352 24.9651 34.53L25.2044 34.2455C25.2087 34.2406 25.2132 34.2403 25.2178 34.2447Z" fill="white"/>
<path d="M27.7183 34.3191L27.4817 34.8758C27.4806 34.8784 27.4787 34.8807 27.4763 34.8823C27.4739 34.884 27.4711 34.8848 27.4682 34.8849L27.0704 34.8857C27.068 34.8857 27.0655 34.8851 27.0634 34.8839C27.0612 34.8828 27.0594 34.8811 27.058 34.879C27.0567 34.8769 27.0559 34.8745 27.0557 34.8721C27.0555 34.8696 27.056 34.8671 27.057 34.8649L28.097 32.4892C28.0982 32.4866 28.1 32.4844 28.1024 32.4828C28.1048 32.4813 28.1076 32.4805 28.1104 32.4805H28.4804C28.4833 32.4805 28.486 32.4813 28.4884 32.4828C28.4908 32.4844 28.4927 32.4866 28.4939 32.4892L29.5335 34.864C29.5345 34.8663 29.5349 34.8687 29.5347 34.8712C29.5345 34.8737 29.5337 34.876 29.5324 34.8781C29.5311 34.8802 29.5292 34.8819 29.5271 34.8831C29.5249 34.8843 29.5225 34.8849 29.52 34.8849L29.1101 34.8853C29.1071 34.8854 29.1042 34.8845 29.1017 34.8829C29.0992 34.8813 29.0973 34.8789 29.0962 34.8762L28.8617 34.3191C28.8606 34.3163 28.8586 34.314 28.8561 34.3124C28.8537 34.3107 28.8508 34.3099 28.8478 34.3099H27.7318C27.7289 34.31 27.7261 34.3109 27.7237 34.3125C27.7213 34.3141 27.7194 34.3164 27.7183 34.3191ZM27.8864 33.9161C27.8854 33.9184 27.885 33.9209 27.8852 33.9234C27.8854 33.9259 27.8862 33.9284 27.8876 33.9305C27.889 33.9326 27.8908 33.9343 27.8931 33.9355C27.8953 33.9367 27.8978 33.9373 27.9003 33.9374L28.6802 33.9361C28.6827 33.936 28.6852 33.9354 28.6874 33.9342C28.6896 33.933 28.6915 33.9313 28.6929 33.9292C28.6942 33.9271 28.6951 33.9246 28.6953 33.9221C28.6955 33.9196 28.6951 33.9171 28.6941 33.9148L28.3028 33.0111C28.3017 33.0083 28.2997 33.0059 28.2972 33.0042C28.2947 33.0025 28.2917 33.0016 28.2887 33.0016C28.2857 33.0016 28.2827 33.0025 28.2802 33.0042C28.2777 33.0059 28.2757 33.0083 28.2746 33.0111L27.8864 33.9161Z" fill="white"/>
<path d="M37.7129 34.3191L37.4754 34.8758C37.4743 34.8784 37.4724 34.8807 37.47 34.8823C37.4676 34.884 37.4648 34.8848 37.4619 34.8849L37.0646 34.8857C37.0621 34.8857 37.0597 34.8851 37.0575 34.8839C37.0553 34.8828 37.0535 34.8811 37.0522 34.879C37.0508 34.8769 37.05 34.8745 37.0498 34.8721C37.0497 34.8696 37.0501 34.8671 37.0511 34.8649L38.0911 32.4892C38.0923 32.4866 38.0942 32.4844 38.0966 32.4828C38.099 32.4813 38.1017 32.4805 38.1046 32.4805H38.4746C38.4774 32.4805 38.4802 32.4813 38.4826 32.4828C38.485 32.4844 38.4869 32.4866 38.488 32.4892L39.5276 34.8645C39.5286 34.8667 39.5291 34.8692 39.5289 34.8716C39.5287 34.8741 39.5279 34.8765 39.5266 34.8786C39.5252 34.8806 39.5234 34.8823 39.5212 34.8835C39.519 34.8847 39.5166 34.8853 39.5141 34.8853L39.1042 34.8849C39.1013 34.8849 39.0983 34.8841 39.0959 34.8825C39.0934 34.8808 39.0915 34.8785 39.0903 34.8758L38.8558 34.3191C38.8547 34.3163 38.8528 34.314 38.8503 34.3124C38.8478 34.3107 38.8449 34.3099 38.8419 34.3099H37.7264C37.7235 34.31 37.7207 34.3109 37.7183 34.3125C37.7159 34.3141 37.714 34.3164 37.7129 34.3191ZM37.8796 33.9178C37.8788 33.9199 37.8785 33.9222 37.8787 33.9245C37.879 33.9268 37.8798 33.929 37.881 33.9309C37.8823 33.9327 37.8841 33.9343 37.8861 33.9353C37.8881 33.9364 37.8904 33.9369 37.8927 33.9369L38.6765 33.9356C38.6788 33.9356 38.6811 33.935 38.6831 33.9339C38.6851 33.9328 38.6868 33.9312 38.6881 33.9292C38.6893 33.9273 38.6901 33.9251 38.6902 33.9228C38.6904 33.9205 38.69 33.9182 38.6891 33.9161L38.2957 33.0076C38.2946 33.0051 38.2928 33.003 38.2905 33.0014C38.2883 32.9999 38.2856 32.9991 38.2828 32.9991C38.2801 32.9991 38.2774 32.9999 38.2752 33.0014C38.2729 33.003 38.2711 33.0051 38.27 33.0076L37.8796 33.9178Z" fill="white"/>
<path d="M42.7002 34.8853H42.3029C42.3004 34.8853 42.298 34.8847 42.2958 34.8835C42.2936 34.8823 42.2918 34.8806 42.2904 34.8786C42.2891 34.8765 42.2883 34.8741 42.2881 34.8716C42.2879 34.8692 42.2884 34.8667 42.2894 34.8645L43.329 32.4892C43.3301 32.4866 43.332 32.4844 43.3344 32.4828C43.3368 32.4813 43.3396 32.4805 43.3424 32.4805H43.7128C43.7157 32.4805 43.7185 32.4813 43.7209 32.4828C43.7232 32.4844 43.7251 32.4866 43.7263 32.4892L44.7655 34.8645C44.7665 34.8667 44.7669 34.8692 44.7667 34.8716C44.7665 34.8741 44.7657 34.8765 44.7644 34.8786C44.7631 34.8806 44.7612 34.8823 44.7591 34.8835C44.7569 34.8847 44.7545 34.8853 44.752 34.8853H44.3416C44.3387 34.8854 44.3358 34.8845 44.3333 34.8829C44.3308 34.8813 44.3289 34.8789 44.3277 34.8762L44.0937 34.3191C44.0925 34.3163 44.0906 34.314 44.0881 34.3124C44.0857 34.3107 44.0827 34.3099 44.0798 34.3099L42.9642 34.3095C42.9613 34.3095 42.9585 34.3104 42.9561 34.312C42.9537 34.3137 42.9519 34.316 42.9507 34.3186L42.7137 34.8762C42.7125 34.8789 42.7107 34.8811 42.7083 34.8828C42.7059 34.8844 42.7031 34.8853 42.7002 34.8853ZM43.913 33.9365C43.9155 33.9365 43.9179 33.9359 43.9201 33.9347C43.9223 33.9335 43.9241 33.9318 43.9254 33.9297C43.9268 33.9277 43.9276 33.9253 43.9278 33.9228C43.9279 33.9204 43.9275 33.9179 43.9265 33.9156L43.5339 33.0098C43.5328 33.0072 43.5309 33.005 43.5285 33.0035C43.5261 33.0019 43.5233 33.0011 43.5205 33.0011C43.5176 33.0011 43.5149 33.0019 43.5125 33.0035C43.5101 33.005 43.5082 33.0072 43.507 33.0098L43.1184 33.9161C43.1174 33.9183 43.1171 33.9208 43.1173 33.9232C43.1176 33.9257 43.1184 33.928 43.1198 33.93C43.1212 33.9321 43.123 33.9337 43.1252 33.9348C43.1274 33.936 43.1298 33.9365 43.1323 33.9365H43.913Z" fill="white"/>
<path d="M49.1862 34.3178L48.9487 34.8775C48.9476 34.8799 48.9459 34.8819 48.9438 34.8832C48.9416 34.8846 48.9391 34.8854 48.9365 34.8853H48.5357C48.5335 34.8853 48.5314 34.8848 48.5294 34.8838C48.5275 34.8828 48.5259 34.8813 48.5246 34.8795C48.5234 34.8777 48.5227 34.8756 48.5225 34.8734C48.5223 34.8713 48.5227 34.8691 48.5236 34.8671L49.5649 32.4883C49.5659 32.4859 49.5676 32.4839 49.5698 32.4825C49.5719 32.4811 49.5745 32.4804 49.577 32.4805H49.9492C49.9517 32.4804 49.9543 32.4811 49.9564 32.4825C49.9586 32.4839 49.9603 32.4859 49.9613 32.4883L51.0026 34.8671C51.0035 34.8691 51.0039 34.8713 51.0037 34.8734C51.0035 34.8756 51.0028 34.8777 51.0015 34.8795C51.0003 34.8813 50.9987 34.8828 50.9968 34.8838C50.9948 34.8848 50.9927 34.8853 50.9905 34.8853L50.5758 34.8849C50.5732 34.8849 50.5707 34.8842 50.5685 34.8828C50.5664 34.8814 50.5647 34.8794 50.5636 34.8771L50.3287 34.3173C50.3277 34.315 50.326 34.313 50.3238 34.3116C50.3216 34.3102 50.3191 34.3095 50.3165 34.3095L49.1984 34.3099C49.1958 34.3099 49.1933 34.3106 49.1911 34.312C49.1889 34.3134 49.1872 34.3154 49.1862 34.3178ZM49.3534 33.9165C49.3524 33.9188 49.3519 33.9212 49.3521 33.9237C49.3523 33.9262 49.3531 33.9285 49.3544 33.9306C49.3558 33.9327 49.3576 33.9344 49.3598 33.9356C49.3619 33.9367 49.3644 33.9374 49.3668 33.9374L50.1489 33.9356C50.1513 33.9356 50.1537 33.935 50.1558 33.9338C50.1579 33.9327 50.1597 33.931 50.1611 33.929C50.1624 33.927 50.1632 33.9247 50.1634 33.9223C50.1637 33.9199 50.1633 33.9174 50.1624 33.9152L49.7698 33.0102C49.7687 33.0075 49.7668 33.0052 49.7644 33.0036C49.762 33.0019 49.7591 33.001 49.7562 33.001C49.7532 33.001 49.7503 33.0019 49.7479 33.0036C49.7455 33.0052 49.7436 33.0075 49.7425 33.0102L49.3534 33.9165Z" fill="white"/>
<path d="M0.773332 33.6768L1.88413 32.5043C1.88546 32.5029 1.88708 32.5018 1.88888 32.5011C1.89067 32.5003 1.8926 32.5 1.89455 32.5L2.36831 32.5017C2.37101 32.5018 2.37366 32.5026 2.37591 32.5041C2.37816 32.5056 2.37993 32.5077 2.38099 32.5102C2.38205 32.5127 2.38236 32.5154 2.38188 32.5181C2.3814 32.5208 2.38016 32.5232 2.3783 32.5252L1.41775 33.5166C1.41543 33.519 1.41406 33.5222 1.4139 33.5255C1.41374 33.5289 1.4148 33.5322 1.41688 33.5348L2.43171 34.864C2.43324 34.8661 2.43416 34.8686 2.43438 34.8711C2.43459 34.8737 2.43408 34.8763 2.43291 34.8786C2.43173 34.8809 2.42994 34.8828 2.42774 34.8842C2.42553 34.8855 2.423 34.8862 2.42042 34.8862H1.94796C1.94577 34.8862 1.9436 34.8857 1.94164 34.8847C1.93967 34.8837 1.93797 34.8823 1.93667 34.8805L1.13375 33.824C1.13258 33.8224 1.13108 33.8211 1.12935 33.8201C1.12762 33.8192 1.1257 33.8186 1.12373 33.8184C1.12175 33.8182 1.11977 33.8185 1.1179 33.8192C1.11604 33.8198 1.11433 33.8209 1.11291 33.8223L0.753357 34.1896C0.750876 34.1922 0.749477 34.1956 0.749449 34.1992V34.8718C0.749449 34.8755 0.747985 34.8791 0.745379 34.8817C0.742773 34.8843 0.739239 34.8857 0.735553 34.8857L0.342997 34.8862C0.339312 34.8862 0.335778 34.8847 0.333172 34.8821C0.330566 34.8795 0.329102 34.876 0.329102 34.8723L0.329536 32.5152C0.329536 32.5115 0.331 32.508 0.333606 32.5054C0.336212 32.5028 0.339746 32.5013 0.343432 32.5013L0.735553 32.5004C0.739239 32.5004 0.742773 32.5019 0.745379 32.5045C0.747985 32.5071 0.749449 32.5106 0.749449 32.5143V33.6672C0.74947 33.67 0.750312 33.6727 0.751868 33.675C0.753423 33.6773 0.755622 33.679 0.758184 33.68C0.760745 33.6811 0.763554 33.6813 0.766252 33.6807C0.768949 33.6802 0.771414 33.6788 0.773332 33.6768Z" fill="white"/>
<path d="M3.23772 32.498H2.85038C2.84078 32.498 2.83301 32.5058 2.83301 32.5154V34.8699C2.83301 34.8795 2.84078 34.8873 2.85038 34.8873H3.23772C3.24732 34.8873 3.25509 34.8795 3.25509 34.8699V32.5154C3.25509 32.5058 3.24732 32.498 3.23772 32.498Z" fill="white"/>
<path d="M5.57885 34.1154L5.57841 32.5143C5.57841 32.5126 5.57875 32.5109 5.5794 32.5093C5.58006 32.5078 5.58102 32.5063 5.58223 32.5051C5.58344 32.5039 5.58487 32.5029 5.58645 32.5023C5.58803 32.5016 5.58973 32.5013 5.59144 32.5013L5.97748 32.5C5.98094 32.5 5.98425 32.5014 5.98669 32.5038C5.98914 32.5063 5.99051 32.5096 5.99051 32.513V34.8727C5.99051 34.8762 5.98914 34.8795 5.98669 34.8819C5.98425 34.8844 5.98094 34.8857 5.97748 34.8857H5.64485C5.64283 34.8857 5.64083 34.8853 5.63903 34.8844C5.63722 34.8835 5.63564 34.8821 5.63443 34.8805L4.33952 33.2135C4.33785 33.2112 4.33553 33.2096 4.33287 33.2088C4.33022 33.208 4.32738 33.2081 4.32476 33.209C4.32215 33.2099 4.31989 33.2116 4.31833 33.2139C4.31677 33.2162 4.31597 33.2189 4.31607 33.2217V34.8727C4.31607 34.8744 4.31573 34.8761 4.31508 34.8777C4.31442 34.8793 4.31346 34.8807 4.31225 34.8819C4.31104 34.8831 4.30961 34.8841 4.30803 34.8847C4.30644 34.8854 4.30475 34.8857 4.30304 34.8857H3.9183C3.91485 34.8857 3.91153 34.8844 3.90909 34.8819C3.90665 34.8795 3.90527 34.8762 3.90527 34.8727V32.5139C3.90527 32.5104 3.90665 32.5071 3.90909 32.5047C3.91153 32.5022 3.91485 32.5009 3.9183 32.5009L4.28828 32.5004C4.2903 32.5004 4.29229 32.5009 4.2941 32.5018C4.29591 32.5027 4.29748 32.504 4.2987 32.5056L5.5554 34.1236C5.55706 34.1259 5.55939 34.1275 5.56204 34.1283C5.56469 34.1291 5.56753 34.129 5.57015 34.1281C5.57277 34.1272 5.57502 34.1255 5.57658 34.1232C5.57815 34.1209 5.57894 34.1182 5.57885 34.1154Z" fill="white"/>
<path d="M16.8586 33.2056C16.8586 33.1813 16.8518 33.1793 16.8382 33.1996L16.1065 34.2899C16.1051 34.292 16.1033 34.2938 16.1011 34.295C16.0989 34.2962 16.0965 34.2968 16.094 34.2969C16.0915 34.2969 16.0891 34.2963 16.0869 34.2952C16.0846 34.2941 16.0827 34.2924 16.0813 34.2904L15.3626 33.2139C15.3461 33.1893 15.3379 33.1917 15.3379 33.2213V34.8701C15.3379 34.8802 15.3328 34.8853 15.3227 34.8853L14.9401 34.8857C14.9306 34.8857 14.9258 34.881 14.9258 34.8714V32.5243C14.9258 32.5087 14.9335 32.5009 14.9488 32.5009L15.3496 32.5004C15.3569 32.5004 15.3641 32.5023 15.3705 32.5058C15.3769 32.5093 15.3822 32.5143 15.3861 32.5204L16.0935 33.6173C16.0943 33.6186 16.0954 33.6196 16.0967 33.6203C16.0981 33.621 16.0996 33.6214 16.1011 33.6214C16.1026 33.6214 16.104 33.621 16.1054 33.6203C16.1067 33.6196 16.1078 33.6186 16.1087 33.6173L16.8178 32.5169C16.8247 32.5062 16.8344 32.5009 16.8469 32.5009L17.2629 32.5C17.2668 32.5 17.2705 32.5016 17.2733 32.5043C17.2761 32.5071 17.2776 32.5108 17.2776 32.5148V34.8718C17.2776 34.8808 17.273 34.8853 17.2637 34.8853L16.8725 34.8857C16.8632 34.8857 16.8586 34.881 16.8586 34.8714V33.2056Z" fill="white"/>
<path d="M22.2802 33.5346L23.4565 33.5342C23.4604 33.5342 23.4642 33.5357 23.467 33.5385C23.4697 33.5412 23.4713 33.545 23.4713 33.5489L23.4717 33.9002C23.4717 33.9041 23.4702 33.9079 23.4674 33.9107C23.4646 33.9134 23.4609 33.915 23.457 33.915H22.2802C22.2762 33.915 22.2725 33.9165 22.2697 33.9193C22.267 33.9221 22.2654 33.9258 22.2654 33.9297V34.8725C22.2654 34.8744 22.265 34.8763 22.2643 34.8781C22.2635 34.8799 22.2624 34.8816 22.2611 34.8829C22.2597 34.8843 22.2581 34.8854 22.2563 34.8861C22.2545 34.8869 22.2526 34.8873 22.2506 34.8873L21.8585 34.8881C21.8546 34.8881 21.8508 34.8866 21.8481 34.8838C21.8453 34.881 21.8438 34.8773 21.8438 34.8734V32.5132C21.8438 32.5093 21.8453 32.5056 21.8481 32.5028C21.8508 32.5 21.8546 32.4985 21.8585 32.4985L23.6098 32.498C23.6137 32.498 23.6175 32.4996 23.6203 32.5024C23.623 32.5051 23.6246 32.5089 23.6246 32.5128L23.6241 32.865C23.6241 32.8689 23.6226 32.8727 23.6198 32.8754C23.6171 32.8782 23.6133 32.8797 23.6094 32.8797L22.2802 32.8802C22.2762 32.8802 22.2725 32.8817 22.2697 32.8845C22.267 32.8873 22.2654 32.891 22.2654 32.8949V33.5198C22.2654 33.5237 22.267 33.5275 22.2697 33.5303C22.2725 33.533 22.2762 33.5346 22.2802 33.5346Z" fill="white"/>
<path d="M30.7841 34.5344C31.2192 34.56 31.4268 34.2643 31.4255 33.8596C31.4238 33.408 31.4226 32.9588 31.422 32.5122C31.422 32.5041 31.4261 32.5 31.4342 32.5L31.8294 32.5013C31.8324 32.5013 31.8353 32.5025 31.8375 32.5047C31.8397 32.5069 31.841 32.5099 31.8411 32.513C31.842 32.971 31.8408 33.4342 31.8376 33.9026C31.835 34.2826 31.68 34.6582 31.32 34.8228C30.9891 34.9739 30.458 34.9626 30.1727 34.7468C29.8822 34.5275 29.7902 34.1983 29.791 33.8488C29.7919 33.3992 29.7925 32.9552 29.7928 32.5169C29.7928 32.5062 29.798 32.5009 29.8084 32.5009H30.2009C30.2091 32.5009 30.2131 32.5049 30.2131 32.513C30.2119 32.9525 30.2115 33.3973 30.2118 33.8475C30.2121 34.2826 30.4029 34.5116 30.7841 34.5344Z" fill="white"/>
<path d="M35.5653 32.498H35.1719C35.1654 32.498 35.1602 32.5033 35.1602 32.5098V34.8755C35.1602 34.882 35.1654 34.8873 35.1719 34.8873H35.5653C35.5718 34.8873 35.577 34.882 35.577 34.8755V32.5098C35.577 32.5033 35.5718 32.498 35.5653 32.498Z" fill="white"/>
<path d="M48.0938 32.498H47.7074C47.698 32.498 47.6904 32.5056 47.6904 32.515V34.8703C47.6904 34.8797 47.698 34.8873 47.7074 34.8873H48.0938C48.1032 34.8873 48.1108 34.8797 48.1108 34.8703V32.515C48.1108 32.5056 48.1032 32.498 48.0938 32.498Z" fill="white"/>
<path d="M9.32715 32.535C9.32715 32.5245 9.33131 32.5144 9.33872 32.507C9.34613 32.4996 9.35618 32.4954 9.36666 32.4954L10.2847 32.4941C10.4438 32.4938 10.6015 32.5238 10.7486 32.5823C10.8958 32.6408 11.0296 32.7266 11.1423 32.835C11.2551 32.9433 11.3446 33.072 11.4057 33.2138C11.4669 33.3555 11.4985 33.5074 11.4988 33.661V33.7148C11.4994 34.0248 11.3722 34.3224 11.1453 34.542C10.9184 34.7616 10.6104 34.8854 10.289 34.886L9.37101 34.8873C9.36053 34.8873 9.35048 34.8831 9.34306 34.8757C9.33565 34.8683 9.33149 34.8582 9.33149 34.8477L9.32715 32.535ZM9.74402 32.9201L9.74923 34.4643C9.74923 34.4699 9.75035 34.4755 9.75251 34.4807C9.75468 34.4859 9.75785 34.4906 9.76185 34.4946C9.76585 34.4985 9.77059 34.5016 9.7758 34.5037C9.78102 34.5059 9.7866 34.5069 9.79222 34.5069L10.2647 34.5051C10.477 34.5043 10.6803 34.4201 10.8298 34.2711C10.9794 34.1221 11.0631 33.9204 11.0624 33.7105V33.6653C11.062 33.5612 11.041 33.4583 11.0004 33.3623C10.9598 33.2663 10.9005 33.1791 10.8259 33.1058C10.7512 33.0325 10.6627 32.9745 10.5654 32.935C10.468 32.8955 10.3638 32.8754 10.2586 32.8758L9.78614 32.8776C9.77493 32.8777 9.76422 32.8822 9.75633 32.8902C9.74845 32.8982 9.74402 32.9089 9.74402 32.9201Z" fill="white"/>
<path d="M32.4512 32.5376C32.4512 32.526 32.4557 32.515 32.4639 32.5069C32.472 32.4987 32.4831 32.4941 32.4946 32.4941H33.4109C33.5698 32.4941 33.7273 32.5244 33.8742 32.5831C34.021 32.6419 34.1545 32.728 34.2669 32.8365C34.3793 32.9451 34.4685 33.0739 34.5294 33.2158C34.5902 33.3576 34.6215 33.5096 34.6215 33.6631V33.717C34.6215 34.027 34.494 34.3243 34.2669 34.5436C34.0399 34.7628 33.7319 34.886 33.4109 34.886H32.4946C32.4831 34.886 32.472 34.8814 32.4639 34.8732C32.4557 34.8651 32.4512 34.854 32.4512 34.8425V32.5376ZM32.8667 32.9253L32.872 34.4582C32.872 34.4647 32.8732 34.4711 32.8757 34.4771C32.8782 34.4831 32.8819 34.4885 32.8865 34.4931C32.8911 34.4976 32.8965 34.5012 32.9025 34.5037C32.9086 34.5061 32.915 34.5073 32.9215 34.5073L33.3805 34.5056C33.5946 34.5047 33.7996 34.4205 33.9505 34.2713C34.1014 34.1221 34.1858 33.9202 34.1851 33.71V33.6649C34.1848 33.5607 34.1635 33.4576 34.1226 33.3615C34.0817 33.2654 34.0219 33.1782 33.9466 33.1048C33.8713 33.0314 33.782 32.9733 33.6838 32.9338C33.5856 32.8943 33.4805 32.8741 33.3744 32.8745L32.9154 32.8763C32.9024 32.8764 32.8901 32.8816 32.881 32.8908C32.8719 32.9 32.8667 32.9124 32.8667 32.9253Z" fill="white"/>
<path d="M41.3315 33.9791C41.3303 33.9795 41.3292 33.9802 41.3282 33.9811C41.3273 33.982 41.3266 33.9831 41.3262 33.9843C41.3257 33.9856 41.3256 33.9869 41.3258 33.9882C41.326 33.9894 41.3264 33.9907 41.3272 33.9917L41.9599 34.8763C41.9605 34.8773 41.9608 34.8784 41.9609 34.8795C41.9609 34.8806 41.9607 34.8818 41.9601 34.8828C41.9596 34.8838 41.9588 34.8847 41.9579 34.8853C41.9569 34.8859 41.9558 34.8862 41.9547 34.8863H41.4853C41.4815 34.8863 41.4778 34.8853 41.4745 34.8836C41.4712 34.8819 41.4683 34.8794 41.4661 34.8763L40.8982 34.0721C40.894 34.0662 40.8885 34.0613 40.882 34.058C40.8756 34.0547 40.8685 34.053 40.8612 34.053L40.3762 34.0538C40.362 34.0538 40.3549 34.0609 40.3549 34.0751L40.3554 34.8767C40.3553 34.8792 40.3544 34.8816 40.3526 34.8833C40.3508 34.8851 40.3484 34.8862 40.3458 34.8863H39.9528C39.9433 34.8863 39.9385 34.8815 39.9385 34.8719V32.5253C39.9385 32.5105 39.9459 32.5032 39.9606 32.5032C40.2918 32.4991 40.622 32.499 40.9511 32.5027C41.4106 32.5079 41.8739 32.6582 41.8856 33.2097C41.8943 33.6097 41.7096 33.8662 41.3315 33.9791ZM40.351 32.9152V33.6543C40.351 33.6637 40.3547 33.6726 40.3613 33.6792C40.3679 33.6858 40.3769 33.6895 40.3862 33.6895H41.0032C41.1265 33.6895 41.2447 33.6491 41.3318 33.5771C41.4189 33.5051 41.4679 33.4074 41.4679 33.3056V33.2639C41.4679 33.1621 41.4189 33.0645 41.3318 32.9925C41.2447 32.9205 41.1265 32.8801 41.0032 32.8801H40.3862C40.3769 32.8801 40.3679 32.8838 40.3613 32.8904C40.3547 32.897 40.351 32.9059 40.351 32.9152Z" fill="white"/>
<path d="M46.7103 33.6543C47.0203 33.755 47.1725 33.95 47.1667 34.2392C47.1567 34.7399 46.6929 34.8876 46.28 34.8893C45.9195 34.891 45.5588 34.8889 45.1978 34.8828C45.1825 34.8825 45.1748 34.8747 45.1748 34.8593V32.514C45.1748 32.507 45.1784 32.5034 45.1857 32.5031C45.5912 32.4979 45.9974 32.4992 46.4041 32.507C46.559 32.5102 46.6987 32.5632 46.8232 32.666C47.1702 32.9521 47.079 33.409 46.709 33.6404C46.7078 33.6412 46.7068 33.6423 46.7061 33.6436C46.7055 33.6449 46.7052 33.6463 46.7054 33.6478C46.7055 33.6492 46.706 33.6506 46.7069 33.6517C46.7078 33.6529 46.7089 33.6538 46.7103 33.6543ZM45.586 32.8857V33.4893C45.586 33.494 45.5879 33.4985 45.5912 33.5019C45.5946 33.5052 45.5991 33.5071 45.6038 33.5071H46.2183C46.3238 33.5071 46.425 33.4758 46.4996 33.42C46.5741 33.3642 46.6161 33.2885 46.6161 33.2096V33.1653C46.6161 33.0865 46.5741 33.0108 46.4996 32.955C46.425 32.8992 46.3238 32.8679 46.2183 32.8679H45.6038C45.5991 32.8679 45.5946 32.8698 45.5912 32.8731C45.5879 32.8764 45.586 32.881 45.586 32.8857ZM45.5826 33.8962L45.5817 34.4859C45.5817 34.4961 45.5858 34.506 45.593 34.5132C45.6003 34.5205 45.6101 34.5245 45.6203 34.5245L46.2995 34.5258C46.3583 34.5259 46.4166 34.5183 46.471 34.5034C46.5253 34.4884 46.5747 34.4665 46.6163 34.4389C46.658 34.4112 46.691 34.3783 46.7135 34.3421C46.736 34.3059 46.7476 34.2671 46.7476 34.2279V34.1576C46.7476 34.0785 46.7005 34.0026 46.6167 33.9466C46.5328 33.8906 46.419 33.859 46.3004 33.8588L45.6212 33.8575C45.611 33.8575 45.6011 33.8616 45.5939 33.8689C45.5866 33.8761 45.5826 33.8859 45.5826 33.8962Z" fill="white"/>
</g>
<defs>
<clipPath id="clip0_1336_85">
<rect width="52.1092" height="35" fill="white"/>
</clipPath>
</defs>
</svg>
