<svg xmlns="http://www.w3.org/2000/svg" version="1.1" viewBox="0.00 0.00 207.00 161.00">
<path fill="#0084bd" d="
  M 159.82 139.33
  Q 154.20 142.02 146.75 142.03
  Q 133.74 142.06 120.60 141.95
  A 2.96 2.95 0.2 0 1 117.66 139.00
  L 117.66 125.25
  A 3.24 3.24 0.0 0 1 120.89 122.01
  Q 133.74 121.97 147.00 122.00
  C 153.16 122.01 157.68 117.91 157.69 111.75
  Q 157.78 82.50 157.67 53.25
  C 157.64 45.45 153.42 42.03 146.03 42.01
  Q 133.55 41.98 120.68 42.00
  A 3.01 3.01 0.0 0 1 117.66 39.00
  L 117.66 25.26
  A 3.24 3.23 89.9 0 1 120.88 22.02
  Q 131.40 21.97 141.90 22.00
  Q 152.21 22.04 156.94 23.57
  C 168.47 27.30 177.03 38.25 177.13 50.75
  Q 177.36 81.00 177.16 111.25
  Q 177.02 131.10 159.82 139.33
  Z"
/>
<path fill="#0084bd" d="
  M 84.88 69.48
  A 0.14 0.14 0.0 0 0 84.97 69.24
  Q 73.96 59.27 62.94 49.24
  Q 59.45 46.07 58.75 44.21
  C 56.65 38.65 62.31 34.57 65.64 31.24
  C 70.15 26.71 73.92 25.84 78.60 30.49
  Q 101.67 53.50 124.81 76.44
  C 129.95 81.54 126.81 85.59 122.49 89.86
  Q 100.85 111.30 79.28 132.81
  C 75.06 137.03 71.19 138.25 66.70 133.79
  C 61.25 128.37 53.64 123.28 62.25 115.43
  Q 73.59 105.09 84.73 94.97
  Q 85.27 94.49 84.54 94.49
  Q 56.86 94.49 29.21 94.48
  Q 23.51 94.48 21.46 93.45
  C 16.42 90.90 17.60 83.87 17.66 78.98
  Q 17.71 74.68 18.98 72.76
  Q 21.14 69.48 25.75 69.50
  Q 55.35 69.58 84.88 69.48
  Z"
/>
</svg>
